<svg height="126.664729pt" stroke-linejoin="round" viewBox="0 0 713.625 126.664729" width="713.625pt" xmlns="http://www.w3.org/2000/svg" xmlns:xlink="http://www.w3.org/1999/xlink"><defs stroke-linejoin="round"><clipPath id="a" stroke-linejoin="round"><path d="m38.973438 21.47434h642.15v84.812264h-642.15z"/></clipPath><path id="b" d="m9.8125 72.90625h9.859375v-67.828125q0-13.1875-5-19.140625-5-5.953125-16.09375-5.953125h-3.75v8.296875h3.078125q6.53125 0 9.21875 3.671875 2.6875 3.65625 2.6875 13.125z" stroke-linejoin="round"/><path id="c" d="m34.28125 27.484375q-10.890625 0-15.09375-2.484375-4.203125-2.484375-4.203125-8.5 0-4.78125 3.15625-7.59375 3.15625-2.796875 8.5625-2.796875 7.484375 0 12 5.296875 4.515625 5.296875 4.515625 14.078125v2zm17.921875 3.71875v-31.203125h-8.984375v8.296875q-3.078125-4.96875-7.671875-7.34375-4.59375-2.375-11.234375-2.375-8.390625 0-13.359375 4.71875-4.953125 4.71875-4.953125 12.625 0 9.21875 6.171875 13.90625 6.1875 4.6875 18.4375 4.6875h12.609375v.890625q0 6.203125-4.078125 9.59375-4.078125 3.390625-11.453125 3.390625-4.6875 0-9.140625-1.125-4.4375-1.125-8.53125-3.375v8.3125q4.921875 1.90625 9.5625 2.84375 4.640625.953125 9.03125.953125 11.875 0 17.734375-6.15625 5.859375-6.140625 5.859375-18.640625z" stroke-linejoin="round"/><path id="d" d="m54.890625 33.015625v-33.015625h-8.984375v32.71875q0 7.765625-3.03125 11.609375-3.03125 3.859375-9.078125 3.859375-7.28125 0-11.484375-4.640625-4.203125-4.625-4.203125-12.640625v-30.90625h-9.03125v54.6875h9.03125v-8.5q3.234375 4.9375 7.59375 7.375 4.375 2.4375 10.09375 2.4375 9.421875 0 14.25-5.828125 4.84375-5.828125 4.84375-17.15625z" stroke-linejoin="round"/><path id="e" d="m9.8125 72.90625h41.890625v-8.3125h-32.03125v-21.484375h28.90625v-8.296875h-28.90625v-34.8125h-9.859375z" stroke-linejoin="round"/><path id="f" d="m56.203125 29.59375v-4.390625h-41.3125q.59375-9.28125 5.59375-14.140625 5-4.859375 13.9375-4.859375 5.171875 0 10.03125 1.265625 4.859375 1.265625 9.65625 3.8125v-8.5q-4.84375-2.046875-9.921875-3.125-5.078125-1.078125-10.296875-1.078125-13.09375 0-20.734375 7.609375-7.640625 7.625-7.640625 20.625 0 13.421875 7.25 21.296875 7.25 7.890625 19.5625 7.890625 11.03125 0 17.453125-7.109375 6.421875-7.09375 6.421875-19.296875zm-8.984375 2.640625q-.09375 7.359375-4.125 11.75-4.03125 4.40625-10.671875 4.40625-7.515625 0-12.03125-4.25-4.515625-4.25-5.203125-11.96875z" stroke-linejoin="round"/><path id="g" d="m48.6875 27.296875q0 9.90625-4.078125 15.546875-4.078125 5.640625-11.203125 5.640625-7.140625 0-11.21875-5.640625-4.078125-5.640625-4.078125-15.546875 0-9.90625 4.078125-15.546875 4.078125-5.640625 11.21875-5.640625 7.125 0 11.203125 5.640625 4.078125 5.640625 4.078125 15.546875zm-30.578125 19.09375q2.84375 4.875 7.15625 7.234375 4.328125 2.375 10.328125 2.375 9.96875 0 16.1875-7.90625 6.234375-7.90625 6.234375-20.796875 0-12.890625-6.234375-20.8125-6.21875-7.90625-16.1875-7.90625-6 0-10.328125 2.375-4.3125 2.375-7.15625 7.25v-8.203125h-9.03125v75.984375h9.03125z" stroke-linejoin="round"/><path id="h" d="m9.8125 72.90625h14.703125l18.59375-49.609375 18.703125 49.609375h14.703125v-72.90625h-9.625v64.015625l-18.796875-50h-9.90625l-18.796875 50v-64.015625h-9.578125z" stroke-linejoin="round"/><path id="i" d="m41.109375 46.296875q-1.515625.875-3.296875 1.28125-1.78125.421875-3.921875.421875-7.625 0-11.703125-4.953125-4.078125-4.953125-4.078125-14.234375v-28.8125h-9.03125v54.6875h9.03125v-8.5q2.84375 4.984375 7.375 7.390625 4.546875 2.421875 11.046875 2.421875.921875 0 2.046875-.125 1.125-.109375 2.484375-.359375z" stroke-linejoin="round"/><path id="j" d="m34.1875 63.1875-13.390625-36.28125h26.8125zm-5.578125 9.71875h11.1875l27.78125-72.90625h-10.25l-6.640625 18.703125h-32.859375l-6.640625-18.703125h-10.40625z" stroke-linejoin="round"/><path id="k" d="m18.109375 8.203125v-29h-9.03125v75.484375h9.03125v-8.296875q2.84375 4.875 7.15625 7.234375 4.328125 2.375 10.328125 2.375 9.96875 0 16.1875-7.90625 6.234375-7.90625 6.234375-20.796875 0-12.890625-6.234375-20.8125-6.21875-7.90625-16.1875-7.90625-6 0-10.328125 2.375-4.3125 2.375-7.15625 7.25zm30.578125 19.09375q0 9.90625-4.078125 15.546875-4.078125 5.640625-11.203125 5.640625-7.140625 0-11.21875-5.640625-4.078125-5.640625-4.078125-15.546875 0-9.90625 4.078125-15.546875 4.078125-5.640625 11.21875-5.640625 7.125 0 11.203125 5.640625 4.078125 5.640625 4.078125 15.546875z" stroke-linejoin="round"/><path id="l" d="m8.5 21.578125v33.109375h8.984375v-32.765625q0-7.765625 3.015625-11.65625 3.03125-3.875 9.09375-3.875 7.265625 0 11.484375 4.640625 4.234375 4.640625 4.234375 12.65625v31h8.984375v-54.6875h-8.984375v8.40625q-3.265625-4.984375-7.59375-7.40625-4.3125-2.421875-10.03125-2.421875-9.421875 0-14.3125 5.859375-4.875 5.859375-4.875 17.140625z" stroke-linejoin="round"/><path id="m" d="m9.421875 75.984375h8.984375v-75.984375h-8.984375z" stroke-linejoin="round"/><path id="n" d="m53.515625 70.515625v-9.625q-5.609375 2.6875-10.59375 4-4.984375 1.328125-9.625 1.328125-8.046875 0-12.421875-3.125-4.375-3.125-4.375-8.890625 0-4.84375 2.90625-7.3125 2.90625-2.453125 11.015625-3.96875l5.953125-1.21875q11.03125-2.109375 16.28125-7.40625 5.25-5.296875 5.25-14.171875 0-10.609375-7.109375-16.078125-7.09375-5.46875-20.8125-5.46875-5.171875 0-11.015625 1.171875-5.828125 1.171875-12.078125 3.46875v10.15625q6-3.359375 11.765625-5.078125 5.765625-1.703125 11.328125-1.703125 8.4375 0 13.03125 3.3125 4.59375 3.328125 4.59375 9.484375 0 5.359375-3.296875 8.390625-3.296875 3.03125-10.8125 4.546875l-6.015625 1.171875q-11.03125 2.1875-15.96875 6.875-4.921875 4.6875-4.921875 13.046875 0 9.671875 6.8125 15.234375 6.8125 5.5625 18.765625 5.5625 5.140625 0 10.453125-.9375 5.328125-.921875 10.890625-2.765625z" stroke-linejoin="round"/><path id="o" d="m48.78125 52.59375v-8.40625q-3.8125 2.109375-7.640625 3.15625-3.828125 1.046875-7.734375 1.046875-8.75 0-13.59375-5.546875-4.828125-5.53125-4.828125-15.546875 0-10.015625 4.828125-15.5625 4.84375-5.53125 13.59375-5.53125 3.90625 0 7.734375 1.046875 3.828125 1.046875 7.640625 3.15625v-8.3125q-3.765625-1.75-7.796875-2.625-4.015625-.890625-8.5625-.890625-12.359375 0-19.640625 7.765625-7.265625 7.765625-7.265625 20.953125 0 13.375 7.34375 21.03125 7.359375 7.671875 20.15625 7.671875 4.140625 0 8.09375-.859375 3.953125-.84375 7.671875-2.546875z" stroke-linejoin="round"/><path id="p" d="m18.3125 70.21875v-15.53125h18.5v-6.984375h-18.5v-29.6875q0-6.6875 1.828125-8.59375 1.828125-1.90625 7.453125-1.90625h9.21875v-7.515625h-9.21875q-10.40625 0-14.359375 3.875-3.953125 3.890625-3.953125 14.140625v29.6875h-6.59375v6.984375h6.59375v15.53125z" stroke-linejoin="round"/><path id="q" d="m30.609375 48.390625q-7.21875 0-11.421875-5.640625-4.203125-5.640625-4.203125-15.453125 0-9.8125 4.171875-15.453125 4.1875-5.640625 11.453125-5.640625 7.1875 0 11.375 5.65625 4.203125 5.671875 4.203125 15.4375 0 9.71875-4.203125 15.40625-4.1875 5.6875-11.375 5.6875zm0 7.609375q11.71875 0 18.40625-7.625 6.703125-7.609375 6.703125-21.078125 0-13.421875-6.703125-21.078125-6.6875-7.640625-18.40625-7.640625-11.765625 0-18.4375 7.640625-6.65625 7.65625-6.65625 21.078125 0 13.46875 6.65625 21.078125 6.671875 7.625 18.4375 7.625z" stroke-linejoin="round"/><path id="r" d="m-.296875 72.90625h61.671875v-8.3125h-25.875v-64.59375h-9.90625v64.59375h-25.890625z" stroke-linejoin="round"/><path id="s" d="m45.40625 46.390625v29.59375h8.984375v-75.984375h-8.984375v8.203125q-2.828125-4.875-7.15625-7.25-4.3125-2.375-10.375-2.375-9.90625 0-16.140625 7.90625-6.21875 7.921875-6.21875 20.8125 0 12.890625 6.21875 20.796875 6.234375 7.90625 16.140625 7.90625 6.0625 0 10.375-2.375 4.328125-2.359375 7.15625-7.234375zm-30.609375-19.09375q0-9.90625 4.078125-15.546875 4.078125-5.640625 11.203125-5.640625 7.125 0 11.21875 5.640625 4.109375 5.640625 4.109375 15.546875 0 9.90625-4.109375 15.546875-4.09375 5.640625-11.21875 5.640625-7.125 0-11.203125-5.640625-4.078125-5.640625-4.078125-15.546875z" stroke-linejoin="round"/><path id="t" d="m9.421875 54.6875h8.984375v-54.6875h-8.984375zm0 21.296875h8.984375v-11.390625h-8.984375z" stroke-linejoin="round"/><path id="u" d="m52 44.1875q3.375 6.0625 8.0625 8.9375 4.6875 2.875 11.03125 2.875 8.546875 0 13.1875-5.984375 4.640625-5.96875 4.640625-17v-33.015625h-9.03125v32.71875q0 7.859375-2.796875 11.65625-2.78125 3.8125-8.484375 3.8125-6.984375 0-11.046875-4.640625-4.046875-4.625-4.046875-12.640625v-30.90625h-9.03125v32.71875q0 7.90625-2.78125 11.6875-2.78125 3.78125-8.59375 3.78125-6.890625 0-10.953125-4.65625-4.046875-4.65625-4.046875-12.625v-30.90625h-9.03125v54.6875h9.03125v-8.5q3.078125 5.03125 7.375 7.421875 4.296875 2.390625 10.203125 2.390625 5.96875 0 10.140625-3.03125 4.171875-3.015625 6.171875-8.78125z" stroke-linejoin="round"/><path id="v" d="m44.28125 53.078125v-8.5q-3.796875 1.953125-7.90625 2.921875-4.09375.984375-8.5.984375-6.6875 0-10.03125-2.046875-3.34375-2.046875-3.34375-6.15625 0-3.125 2.390625-4.90625 2.390625-1.78125 9.625-3.390625l3.078125-.6875q9.5625-2.046875 13.59375-5.78125 4.03125-3.734375 4.03125-10.421875 0-7.625-6.03125-12.078125-6.03125-4.4375-16.578125-4.4375-4.390625 0-9.15625.859375-4.765625.859375-10.03125 2.5625v9.28125q4.984375-2.59375 9.8125-3.890625 4.828125-1.28125 9.578125-1.28125 6.34375 0 9.75 2.171875 3.421875 2.171875 3.421875 6.125 0 3.65625-2.46875 5.609375-2.453125 1.953125-10.8125 3.765625l-3.125.734375q-8.34375 1.75-12.0625 5.390625-3.703125 3.640625-3.703125 9.984375 0 7.71875 5.46875 11.90625 5.46875 4.203125 15.53125 4.203125 4.96875 0 9.359375-.734375 4.40625-.71875 8.109375-2.1875z" stroke-linejoin="round"/></defs><g stroke-linejoin="round"><path d="m0 126.664729h713.625v-126.664729h-713.625z" fill="none"/><g><path d="m38.973438 106.286604h642.149999v-84.812264h-642.149999z" fill="#fff" stroke-linejoin="round"/><g stroke-linejoin="round"><path clip-path="url(#a)" d="m38.973438 106.286604h12.116037v-12.116038h-12.116037z" fill="#f5f5f5"/><path clip-path="url(#a)" d="m51.089475 106.286604h12.116038v-12.116038h-12.116038z" fill="#f5f5f5"/><path clip-path="url(#a)" d="m63.205513 106.286604h12.116038v-12.116038h-12.116038z" fill="#f5f5f5"/><path clip-path="url(#a)" d="m75.321551 106.286604h12.116037v-12.116038h-12.116037z" fill="#f5f5f5"/><path clip-path="url(#a)" d="m87.437588 106.286604h12.116038v-12.116038h-12.116038z" fill="#f5f5f5"/><path clip-path="url(#a)" d="m99.553626 106.286604h12.116038v-12.116038h-12.116038z" fill="#f5f5f5"/><path clip-path="url(#a)" d="m111.669664 106.286604h12.116038v-12.116038h-12.116038z" fill="#f5f5f5"/><path clip-path="url(#a)" d="m123.785702 106.286604h12.116037v-12.116038h-12.116037z" fill="#f5f5f5"/><path clip-path="url(#a)" d="m135.901739 106.286604h12.116038v-12.116038h-12.116038z" fill="#f5f5f5"/><path clip-path="url(#a)" d="m148.017777 106.286604h12.116038v-12.116038h-12.116038z" fill="#f5f5f5"/><path clip-path="url(#a)" d="m160.133815 106.286604h12.116038v-12.116038h-12.116038z" fill="#f5f5f5"/><path clip-path="url(#a)" d="m172.249853 106.286604h12.116037v-12.116038h-12.116037z" fill="#f5f5f5"/><path clip-path="url(#a)" d="m184.36589 106.286604h12.116038v-12.116038h-12.116038z" fill="#f5f5f5"/><path clip-path="url(#a)" d="m196.481928 106.286604h12.116038v-12.116038h-12.116038z" fill="#f5f5f5"/><path clip-path="url(#a)" d="m208.597966 106.286604h12.116038v-12.116038h-12.116038z" fill="#f5f5f5"/><path clip-path="url(#a)" d="m220.714004 106.286604h12.116037v-12.116038h-12.116037z" fill="#f5f5f5"/><path clip-path="url(#a)" d="m232.830041 106.286604h12.116038v-12.116038h-12.116038z" fill="#f5f5f5"/><path clip-path="url(#a)" d="m244.946079 106.286604h12.116038v-12.116038h-12.116038z" fill="#f5f5f5"/><path clip-path="url(#a)" d="m257.062117 106.286604h12.116037v-12.116038h-12.116037z" fill="#f5f5f5"/><path clip-path="url(#a)" d="m269.178154 106.286604h12.116038v-12.116038h-12.116038z" fill="#f5f5f5"/><path clip-path="url(#a)" d="m281.294192 106.286604h12.116038v-12.116038h-12.116038z" fill="#f5f5f5"/><path clip-path="url(#a)" d="m293.41023 106.286604h12.116038v-12.116038h-12.116038z" fill="#f5f5f5"/><path clip-path="url(#a)" d="m305.526268 106.286604h12.116037v-12.116038h-12.116037z" fill="#f5f5f5"/><path clip-path="url(#a)" d="m317.642305 106.286604h12.116038v-12.116038h-12.116038z" fill="#f5f5f5"/><path clip-path="url(#a)" d="m329.758343 106.286604h12.116038v-12.116038h-12.116038z" fill="#f5f5f5"/><path clip-path="url(#a)" d="m341.874381 106.286604h12.116038v-12.116038h-12.116038z" fill="#f5f5f5"/><path clip-path="url(#a)" d="m353.990419 106.286604h12.116037v-12.116038h-12.116037z" fill="#f5f5f5"/><path clip-path="url(#a)" d="m366.106456 106.286604h12.116038v-12.116038h-12.116038z" fill="#f5f5f5"/><path clip-path="url(#a)" d="m378.222494 106.286604h12.116038v-12.116038h-12.116038z" fill="#f5f5f5"/><path clip-path="url(#a)" d="m390.338532 106.286604h12.116038v-12.116038h-12.116038z" fill="#f5f5f5"/><path clip-path="url(#a)" d="m402.45457 106.286604h12.116037v-12.116038h-12.116037z" fill="#f5f5f5"/><path clip-path="url(#a)" d="m414.570607 106.286604h12.116038v-12.116038h-12.116038z" fill="#f5f5f5"/><path clip-path="url(#a)" d="m426.686645 106.286604h12.116038v-12.116038h-12.116038z" fill="#f5f5f5"/><path clip-path="url(#a)" d="m438.802683 106.286604h12.116038v-12.116038h-12.116038z" fill="#f5f5f5"/><path clip-path="url(#a)" d="m450.918721 106.286604h12.116037v-12.116038h-12.116037z" fill="#f5f5f5"/><path clip-path="url(#a)" d="m463.034758 106.286604h12.116038v-12.116038h-12.116038z" fill="#f5f5f5"/><path clip-path="url(#a)" d="m475.150796 106.286604h12.116038v-12.116038h-12.116038z" fill="#f5f5f5"/><path clip-path="url(#a)" d="m487.266834 106.286604h12.116037v-12.116038h-12.116037z" fill="#f5f5f5"/><path clip-path="url(#a)" d="m499.382871 106.286604h12.116038v-12.116038h-12.116038z" fill="#f5f5f5"/><path clip-path="url(#a)" d="m511.498909 106.286604h12.116038v-12.116038h-12.116038z" fill="#f5f5f5"/><path clip-path="url(#a)" d="m523.614947 106.286604h12.116038v-12.116038h-12.116038z" fill="#f5f5f5"/><path clip-path="url(#a)" d="m535.730985 106.286604h12.116037v-12.116038h-12.116037z" fill="#f5f5f5"/><path clip-path="url(#a)" d="m547.847022 106.286604h12.116038v-12.116038h-12.116038z" fill="#f5f5f5"/><path clip-path="url(#a)" d="m559.96306 106.286604h12.116038v-12.116038h-12.116038z" fill="#f5f5f5"/><path clip-path="url(#a)" d="m572.079098 106.286604h12.116038v-12.116038h-12.116038z" fill="#f5f5f5"/><path clip-path="url(#a)" d="m584.195136 106.286604h12.116037v-12.116038h-12.116037z" fill="#f5f5f5"/><path clip-path="url(#a)" d="m596.311173 106.286604h12.116038v-12.116038h-12.116038z" fill="#f5f5f5"/><path clip-path="url(#a)" d="m608.427211 106.286604h12.116038v-12.116038h-12.116038z" fill="#f5f5f5"/><path clip-path="url(#a)" d="m620.543249 106.286604h12.116038v-12.116038h-12.116038z" fill="#f5f5f5"/><path clip-path="url(#a)" d="m632.659287 106.286604h12.116037v-12.116038h-12.116037z" fill="#f5f5f5"/><path clip-path="url(#a)" d="m644.775324 106.286604h12.116038v-12.116038h-12.116038z" fill="#f5f5f5"/><path clip-path="url(#a)" d="m656.891362 106.286604h12.116038v-12.116038h-12.116038z" fill="#f5f5f5"/><path clip-path="url(#a)" d="m669.0074 106.286604h12.116037v-12.116038h-12.116037z" fill="none"/><path clip-path="url(#a)" d="m38.973438 94.170566h12.116037v-12.116038h-12.116037z" fill="#f5f5f5"/><path clip-path="url(#a)" d="m51.089475 94.170566h12.116038v-12.116038h-12.116038z" fill="#f5f5f5"/><path clip-path="url(#a)" d="m63.205513 94.170566h12.116038v-12.116038h-12.116038z" fill="#f5f5f5"/><path clip-path="url(#a)" d="m75.321551 94.170566h12.116037v-12.116038h-12.116037z" fill="#f5f5f5"/><path clip-path="url(#a)" d="m87.437588 94.170566h12.116038v-12.116038h-12.116038z" fill="#f5f5f5"/><path clip-path="url(#a)" d="m99.553626 94.170566h12.116038v-12.116038h-12.116038z" fill="#f5f5f5"/><path clip-path="url(#a)" d="m111.669664 94.170566h12.116038v-12.116038h-12.116038z" fill="#f5f5f5"/><path clip-path="url(#a)" d="m123.785702 94.170566h12.116037v-12.116038h-12.116037z" fill="#f5f5f5"/><path clip-path="url(#a)" d="m135.901739 94.170566h12.116038v-12.116038h-12.116038z" fill="#f5f5f5"/><path clip-path="url(#a)" d="m148.017777 94.170566h12.116038v-12.116038h-12.116038z" fill="#f5f5f5"/><path clip-path="url(#a)" d="m160.133815 94.170566h12.116038v-12.116038h-12.116038z" fill="#f5f5f5"/><path clip-path="url(#a)" d="m172.249853 94.170566h12.116037v-12.116038h-12.116037z" fill="#f5f5f5"/><path clip-path="url(#a)" d="m184.36589 94.170566h12.116038v-12.116038h-12.116038z" fill="#f5f5f5"/><path clip-path="url(#a)" d="m196.481928 94.170566h12.116038v-12.116038h-12.116038z" fill="#f5f5f5"/><path clip-path="url(#a)" d="m208.597966 94.170566h12.116038v-12.116038h-12.116038z" fill="#f5f5f5"/><path clip-path="url(#a)" d="m220.714004 94.170566h12.116037v-12.116038h-12.116037z" fill="#f5f5f5"/><path clip-path="url(#a)" d="m232.830041 94.170566h12.116038v-12.116038h-12.116038z" fill="#f5f5f5"/><path clip-path="url(#a)" d="m244.946079 94.170566h12.116038v-12.116038h-12.116038z" fill="#f5f5f5"/><path clip-path="url(#a)" d="m257.062117 94.170566h12.116037v-12.116038h-12.116037z" fill="#f5f5f5"/><path clip-path="url(#a)" d="m269.178154 94.170566h12.116038v-12.116038h-12.116038z" fill="#f5f5f5"/><path clip-path="url(#a)" d="m281.294192 94.170566h12.116038v-12.116038h-12.116038z" fill="#f5f5f5"/><path clip-path="url(#a)" d="m293.41023 94.170566h12.116038v-12.116038h-12.116038z" fill="#f5f5f5"/><path clip-path="url(#a)" d="m305.526268 94.170566h12.116037v-12.116038h-12.116037z" fill="#f5f5f5"/><path clip-path="url(#a)" d="m317.642305 94.170566h12.116038v-12.116038h-12.116038z" fill="#f5f5f5"/><path clip-path="url(#a)" d="m329.758343 94.170566h12.116038v-12.116038h-12.116038z" fill="#f5f5f5"/><path clip-path="url(#a)" d="m341.874381 94.170566h12.116038v-12.116038h-12.116038z" fill="#f5f5f5"/><path clip-path="url(#a)" d="m353.990419 94.170566h12.116037v-12.116038h-12.116037z" fill="#f5f5f5"/><path clip-path="url(#a)" d="m366.106456 94.170566h12.116038v-12.116038h-12.116038z" fill="#f5f5f5"/><path clip-path="url(#a)" d="m378.222494 94.170566h12.116038v-12.116038h-12.116038z" fill="#f5f5f5"/><path clip-path="url(#a)" d="m390.338532 94.170566h12.116038v-12.116038h-12.116038z" fill="#f5f5f5"/><path clip-path="url(#a)" d="m402.45457 94.170566h12.116037v-12.116038h-12.116037z" fill="#f5f5f5"/><path clip-path="url(#a)" d="m414.570607 94.170566h12.116038v-12.116038h-12.116038z" fill="#f5f5f5"/><path clip-path="url(#a)" d="m426.686645 94.170566h12.116038v-12.116038h-12.116038z" fill="#f5f5f5"/><path clip-path="url(#a)" d="m438.802683 94.170566h12.116038v-12.116038h-12.116038z" fill="#f5f5f5"/><path clip-path="url(#a)" d="m450.918721 94.170566h12.116037v-12.116038h-12.116037z" fill="#f5f5f5"/><path clip-path="url(#a)" d="m463.034758 94.170566h12.116038v-12.116038h-12.116038z" fill="#f5f5f5"/><path clip-path="url(#a)" d="m475.150796 94.170566h12.116038v-12.116038h-12.116038z" fill="#f5f5f5"/><path clip-path="url(#a)" d="m487.266834 94.170566h12.116037v-12.116038h-12.116037z" fill="#f5f5f5"/><path clip-path="url(#a)" d="m499.382871 94.170566h12.116038v-12.116038h-12.116038z" fill="#f5f5f5"/><path clip-path="url(#a)" d="m511.498909 94.170566h12.116038v-12.116038h-12.116038z" fill="#f5f5f5"/><path clip-path="url(#a)" d="m523.614947 94.170566h12.116038v-12.116038h-12.116038z" fill="#f5f5f5"/><path clip-path="url(#a)" d="m535.730985 94.170566h12.116037v-12.116038h-12.116037z" fill="#f5f5f5"/><path clip-path="url(#a)" d="m547.847022 94.170566h12.116038v-12.116038h-12.116038z" fill="#f5f5f5"/><path clip-path="url(#a)" d="m559.96306 94.170566h12.116038v-12.116038h-12.116038z" fill="#f5f5f5"/><path clip-path="url(#a)" d="m572.079098 94.170566h12.116038v-12.116038h-12.116038z" fill="#f5f5f5"/><path clip-path="url(#a)" d="m584.195136 94.170566h12.116037v-12.116038h-12.116037z" fill="#f5f5f5"/><path clip-path="url(#a)" d="m596.311173 94.170566h12.116038v-12.116038h-12.116038z" fill="#f5f5f5"/><path clip-path="url(#a)" d="m608.427211 94.170566h12.116038v-12.116038h-12.116038z" fill="#f5f5f5"/><path clip-path="url(#a)" d="m620.543249 94.170566h12.116038v-12.116038h-12.116038z" fill="#f5f5f5"/><path clip-path="url(#a)" d="m632.659287 94.170566h12.116037v-12.116038h-12.116037z" fill="#f5f5f5"/><path clip-path="url(#a)" d="m644.775324 94.170566h12.116038v-12.116038h-12.116038z" fill="#f5f5f5"/><path clip-path="url(#a)" d="m656.891362 94.170566h12.116038v-12.116038h-12.116038z" fill="#f5f5f5"/><path clip-path="url(#a)" d="m669.0074 94.170566h12.116037v-12.116038h-12.116037z" fill="none"/><path clip-path="url(#a)" d="m38.973438 82.054528h12.116037v-12.116037h-12.116037z" fill="#f5f5f5"/><path clip-path="url(#a)" d="m51.089475 82.054528h12.116038v-12.116037h-12.116038z" fill="#f5f5f5"/><path clip-path="url(#a)" d="m63.205513 82.054528h12.116038v-12.116037h-12.116038z" fill="#f5f5f5"/><path clip-path="url(#a)" d="m75.321551 82.054528h12.116037v-12.116037h-12.116037z" fill="#f5f5f5"/><path clip-path="url(#a)" d="m87.437588 82.054528h12.116038v-12.116037h-12.116038z" fill="#f5f5f5"/><path clip-path="url(#a)" d="m99.553626 82.054528h12.116038v-12.116037h-12.116038z" fill="#f5f5f5"/><path clip-path="url(#a)" d="m111.669664 82.054528h12.116038v-12.116037h-12.116038z" fill="#f5f5f5"/><path clip-path="url(#a)" d="m123.785702 82.054528h12.116037v-12.116037h-12.116037z" fill="#f5f5f5"/><path clip-path="url(#a)" d="m135.901739 82.054528h12.116038v-12.116037h-12.116038z" fill="#f5f5f5"/><path clip-path="url(#a)" d="m148.017777 82.054528h12.116038v-12.116037h-12.116038z" fill="#f5f5f5"/><path clip-path="url(#a)" d="m160.133815 82.054528h12.116038v-12.116037h-12.116038z" fill="#f5f5f5"/><path clip-path="url(#a)" d="m172.249853 82.054528h12.116037v-12.116037h-12.116037z" fill="#f5f5f5"/><path clip-path="url(#a)" d="m184.36589 82.054528h12.116038v-12.116037h-12.116038z" fill="#f5f5f5"/><path clip-path="url(#a)" d="m196.481928 82.054528h12.116038v-12.116037h-12.116038z" fill="#f5f5f5"/><path clip-path="url(#a)" d="m208.597966 82.054528h12.116038v-12.116037h-12.116038z" fill="#f5f5f5"/><path clip-path="url(#a)" d="m220.714004 82.054528h12.116037v-12.116037h-12.116037z" fill="#f5f5f5"/><path clip-path="url(#a)" d="m232.830041 82.054528h12.116038v-12.116037h-12.116038z" fill="#f5f5f5"/><path clip-path="url(#a)" d="m244.946079 82.054528h12.116038v-12.116037h-12.116038z" fill="#f5f5f5"/><path clip-path="url(#a)" d="m257.062117 82.054528h12.116037v-12.116037h-12.116037z" fill="#f5f5f5"/><path clip-path="url(#a)" d="m269.178154 82.054528h12.116038v-12.116037h-12.116038z" fill="#f5f5f5"/><path clip-path="url(#a)" d="m281.294192 82.054528h12.116038v-12.116037h-12.116038z" fill="#f5f5f5"/><path clip-path="url(#a)" d="m293.41023 82.054528h12.116038v-12.116037h-12.116038z" fill="#f5f5f5"/><path clip-path="url(#a)" d="m305.526268 82.054528h12.116037v-12.116037h-12.116037z" fill="#f5f5f5"/><path clip-path="url(#a)" d="m317.642305 82.054528h12.116038v-12.116037h-12.116038z" fill="#f5f5f5"/><path clip-path="url(#a)" d="m329.758343 82.054528h12.116038v-12.116037h-12.116038z" fill="#f5f5f5"/><path clip-path="url(#a)" d="m341.874381 82.054528h12.116038v-12.116037h-12.116038z" fill="#f5f5f5"/><path clip-path="url(#a)" d="m353.990419 82.054528h12.116037v-12.116037h-12.116037z" fill="#f5f5f5"/><path clip-path="url(#a)" d="m366.106456 82.054528h12.116038v-12.116037h-12.116038z" fill="#f5f5f5"/><path clip-path="url(#a)" d="m378.222494 82.054528h12.116038v-12.116037h-12.116038z" fill="#f5f5f5"/><path clip-path="url(#a)" d="m390.338532 82.054528h12.116038v-12.116037h-12.116038z" fill="#f5f5f5"/><path clip-path="url(#a)" d="m402.45457 82.054528h12.116037v-12.116037h-12.116037z" fill="#f5f5f5"/><path clip-path="url(#a)" d="m414.570607 82.054528h12.116038v-12.116037h-12.116038z" fill="#f5f5f5"/><path clip-path="url(#a)" d="m426.686645 82.054528h12.116038v-12.116037h-12.116038z" fill="#f5f5f5"/><path clip-path="url(#a)" d="m438.802683 82.054528h12.116038v-12.116037h-12.116038z" fill="#f5f5f5"/><path clip-path="url(#a)" d="m450.918721 82.054528h12.116037v-12.116037h-12.116037z" fill="#f5f5f5"/><path clip-path="url(#a)" d="m463.034758 82.054528h12.116038v-12.116037h-12.116038z" fill="#f5f5f5"/><path clip-path="url(#a)" d="m475.150796 82.054528h12.116038v-12.116037h-12.116038z" fill="#f5f5f5"/><path clip-path="url(#a)" d="m487.266834 82.054528h12.116037v-12.116037h-12.116037z" fill="#f5f5f5"/><path clip-path="url(#a)" d="m499.382871 82.054528h12.116038v-12.116037h-12.116038z" fill="#f5f5f5"/><path clip-path="url(#a)" d="m511.498909 82.054528h12.116038v-12.116037h-12.116038z" fill="#f5f5f5"/><path clip-path="url(#a)" d="m523.614947 82.054528h12.116038v-12.116037h-12.116038z" fill="#f5f5f5"/><path clip-path="url(#a)" d="m535.730985 82.054528h12.116037v-12.116037h-12.116037z" fill="#f5f5f5"/><path clip-path="url(#a)" d="m547.847022 82.054528h12.116038v-12.116037h-12.116038z" fill="#f5f5f5"/><path clip-path="url(#a)" d="m559.96306 82.054528h12.116038v-12.116037h-12.116038z" fill="#f5f5f5"/><path clip-path="url(#a)" d="m572.079098 82.054528h12.116038v-12.116037h-12.116038z" fill="#f5f5f5"/><path clip-path="url(#a)" d="m584.195136 82.054528h12.116037v-12.116037h-12.116037z" fill="#f5f5f5"/><path clip-path="url(#a)" d="m596.311173 82.054528h12.116038v-12.116037h-12.116038z" fill="#f5f5f5"/><path clip-path="url(#a)" d="m608.427211 82.054528h12.116038v-12.116037h-12.116038z" fill="#f5f5f5"/><path clip-path="url(#a)" d="m620.543249 82.054528h12.116038v-12.116037h-12.116038z" fill="#f5f5f5"/><path clip-path="url(#a)" d="m632.659287 82.054528h12.116037v-12.116037h-12.116037z" fill="#f5f5f5"/><path clip-path="url(#a)" d="m644.775324 82.054528h12.116038v-12.116037h-12.116038z" fill="#f5f5f5"/><path clip-path="url(#a)" d="m656.891362 82.054528h12.116038v-12.116037h-12.116038z" fill="#f5f5f5"/><path clip-path="url(#a)" d="m669.0074 82.054528h12.116037v-12.116037h-12.116037z" fill="none"/><path clip-path="url(#a)" d="m38.973438 69.938491h12.116037v-12.116038h-12.116037z" fill="#f5f5f5"/><path clip-path="url(#a)" d="m51.089475 69.938491h12.116038v-12.116038h-12.116038z" fill="#f5f5f5"/><path clip-path="url(#a)" d="m63.205513 69.938491h12.116038v-12.116038h-12.116038z" fill="#f5f5f5"/><path clip-path="url(#a)" d="m75.321551 69.938491h12.116037v-12.116038h-12.116037z" fill="#f5f5f5"/><path clip-path="url(#a)" d="m87.437588 69.938491h12.116038v-12.116038h-12.116038z" fill="#f5f5f5"/><path clip-path="url(#a)" d="m99.553626 69.938491h12.116038v-12.116038h-12.116038z" fill="#f5f5f5"/><path clip-path="url(#a)" d="m111.669664 69.938491h12.116038v-12.116038h-12.116038z" fill="#f5f5f5"/><path clip-path="url(#a)" d="m123.785702 69.938491h12.116037v-12.116038h-12.116037z" fill="#f5f5f5"/><path clip-path="url(#a)" d="m135.901739 69.938491h12.116038v-12.116038h-12.116038z" fill="#f5f5f5"/><path clip-path="url(#a)" d="m148.017777 69.938491h12.116038v-12.116038h-12.116038z" fill="#f5f5f5"/><path clip-path="url(#a)" d="m160.133815 69.938491h12.116038v-12.116038h-12.116038z" fill="#f5f5f5"/><path clip-path="url(#a)" d="m172.249853 69.938491h12.116037v-12.116038h-12.116037z" fill="#f5f5f5"/><path clip-path="url(#a)" d="m184.36589 69.938491h12.116038v-12.116038h-12.116038z" fill="#f5f5f5"/><path clip-path="url(#a)" d="m196.481928 69.938491h12.116038v-12.116038h-12.116038z" fill="#f5f5f5"/><path clip-path="url(#a)" d="m208.597966 69.938491h12.116038v-12.116038h-12.116038z" fill="#f5f5f5"/><path clip-path="url(#a)" d="m220.714004 69.938491h12.116037v-12.116038h-12.116037z" fill="#f5f5f5"/><path clip-path="url(#a)" d="m232.830041 69.938491h12.116038v-12.116038h-12.116038z" fill="#f5f5f5"/><path clip-path="url(#a)" d="m244.946079 69.938491h12.116038v-12.116038h-12.116038z" fill="#f5f5f5"/><path clip-path="url(#a)" d="m257.062117 69.938491h12.116037v-12.116038h-12.116037z" fill="#f5f5f5"/><path clip-path="url(#a)" d="m269.178154 69.938491h12.116038v-12.116038h-12.116038z" fill="#f5f5f5"/><path clip-path="url(#a)" d="m281.294192 69.938491h12.116038v-12.116038h-12.116038z" fill="#f5f5f5"/><path clip-path="url(#a)" d="m293.41023 69.938491h12.116038v-12.116038h-12.116038z" fill="#f5f5f5"/><path clip-path="url(#a)" d="m305.526268 69.938491h12.116037v-12.116038h-12.116037z" fill="#f5f5f5"/><path clip-path="url(#a)" d="m317.642305 69.938491h12.116038v-12.116038h-12.116038z" fill="#f5f5f5"/><path clip-path="url(#a)" d="m329.758343 69.938491h12.116038v-12.116038h-12.116038z" fill="#f5f5f5"/><path clip-path="url(#a)" d="m341.874381 69.938491h12.116038v-12.116038h-12.116038z" fill="#f5f5f5"/><path clip-path="url(#a)" d="m353.990419 69.938491h12.116037v-12.116038h-12.116037z" fill="#f5f5f5"/><path clip-path="url(#a)" d="m366.106456 69.938491h12.116038v-12.116038h-12.116038z" fill="#f5f5f5"/><path clip-path="url(#a)" d="m378.222494 69.938491h12.116038v-12.116038h-12.116038z" fill="#f5f5f5"/><path clip-path="url(#a)" d="m390.338532 69.938491h12.116038v-12.116038h-12.116038z" fill="#f5f5f5"/><path clip-path="url(#a)" d="m402.45457 69.938491h12.116037v-12.116038h-12.116037z" fill="#f5f5f5"/><path clip-path="url(#a)" d="m414.570607 69.938491h12.116038v-12.116038h-12.116038z" fill="#f5f5f5"/><path clip-path="url(#a)" d="m426.686645 69.938491h12.116038v-12.116038h-12.116038z" fill="#f5f5f5"/><path clip-path="url(#a)" d="m438.802683 69.938491h12.116038v-12.116038h-12.116038z" fill="#f5f5f5"/><path clip-path="url(#a)" d="m450.918721 69.938491h12.116037v-12.116038h-12.116037z" fill="#f5f5f5"/><path clip-path="url(#a)" d="m463.034758 69.938491h12.116038v-12.116038h-12.116038z" fill="#f5f5f5"/><path clip-path="url(#a)" d="m475.150796 69.938491h12.116038v-12.116038h-12.116038z" fill="#f5f5f5"/><path clip-path="url(#a)" d="m487.266834 69.938491h12.116037v-12.116038h-12.116037z" fill="#f5f5f5"/><path clip-path="url(#a)" d="m499.382871 69.938491h12.116038v-12.116038h-12.116038z" fill="#f5f5f5"/><path clip-path="url(#a)" d="m511.498909 69.938491h12.116038v-12.116038h-12.116038z" fill="#f5f5f5"/><path clip-path="url(#a)" d="m523.614947 69.938491h12.116038v-12.116038h-12.116038z" fill="#f5f5f5"/><path clip-path="url(#a)" d="m535.730985 69.938491h12.116037v-12.116038h-12.116037z" fill="#f5f5f5"/><path clip-path="url(#a)" d="m547.847022 69.938491h12.116038v-12.116038h-12.116038z" fill="#f5f5f5"/><path clip-path="url(#a)" d="m559.96306 69.938491h12.116038v-12.116038h-12.116038z" fill="#f5f5f5"/><path clip-path="url(#a)" d="m572.079098 69.938491h12.116038v-12.116038h-12.116038z" fill="#f5f5f5"/><path clip-path="url(#a)" d="m584.195136 69.938491h12.116037v-12.116038h-12.116037z" fill="#f5f5f5"/><path clip-path="url(#a)" d="m596.311173 69.938491h12.116038v-12.116038h-12.116038z" fill="#f5f5f5"/><path clip-path="url(#a)" d="m608.427211 69.938491h12.116038v-12.116038h-12.116038z" fill="#f5f5f5"/><path clip-path="url(#a)" d="m620.543249 69.938491h12.116038v-12.116038h-12.116038z" fill="#f5f5f5"/><path clip-path="url(#a)" d="m632.659287 69.938491h12.116037v-12.116038h-12.116037z" fill="#f5f5f5"/><path clip-path="url(#a)" d="m644.775324 69.938491h12.116038v-12.116038h-12.116038z" fill="#f5f5f5"/><path clip-path="url(#a)" d="m656.891362 69.938491h12.116038v-12.116038h-12.116038z" fill="#f5f5f5"/><path clip-path="url(#a)" d="m669.0074 69.938491h12.116037v-12.116038h-12.116037z" fill="none"/><path clip-path="url(#a)" d="m38.973438 57.822453h12.116037v-12.116038h-12.116037z" fill="#f5f5f5"/><path clip-path="url(#a)" d="m51.089475 57.822453h12.116038v-12.116038h-12.116038z" fill="#f5f5f5"/><path clip-path="url(#a)" d="m63.205513 57.822453h12.116038v-12.116038h-12.116038z" fill="#f5f5f5"/><path clip-path="url(#a)" d="m75.321551 57.822453h12.116037v-12.116038h-12.116037z" fill="#f5f5f5"/><path clip-path="url(#a)" d="m87.437588 57.822453h12.116038v-12.116038h-12.116038z" fill="#f5f5f5"/><path clip-path="url(#a)" d="m99.553626 57.822453h12.116038v-12.116038h-12.116038z" fill="#f5f5f5"/><path clip-path="url(#a)" d="m111.669664 57.822453h12.116038v-12.116038h-12.116038z" fill="#f5f5f5"/><path clip-path="url(#a)" d="m123.785702 57.822453h12.116037v-12.116038h-12.116037z" fill="#f5f5f5"/><path clip-path="url(#a)" d="m135.901739 57.822453h12.116038v-12.116038h-12.116038z" fill="#f5f5f5"/><path clip-path="url(#a)" d="m148.017777 57.822453h12.116038v-12.116038h-12.116038z" fill="#f5f5f5"/><path clip-path="url(#a)" d="m160.133815 57.822453h12.116038v-12.116038h-12.116038z" fill="#f5f5f5"/><path clip-path="url(#a)" d="m172.249853 57.822453h12.116037v-12.116038h-12.116037z" fill="#f5f5f5"/><path clip-path="url(#a)" d="m184.36589 57.822453h12.116038v-12.116038h-12.116038z" fill="#f5f5f5"/><path clip-path="url(#a)" d="m196.481928 57.822453h12.116038v-12.116038h-12.116038z" fill="#f5f5f5"/><path clip-path="url(#a)" d="m208.597966 57.822453h12.116038v-12.116038h-12.116038z" fill="#f5f5f5"/><path clip-path="url(#a)" d="m220.714004 57.822453h12.116037v-12.116038h-12.116037z" fill="#f5f5f5"/><path clip-path="url(#a)" d="m232.830041 57.822453h12.116038v-12.116038h-12.116038z" fill="#f5f5f5"/><path clip-path="url(#a)" d="m244.946079 57.822453h12.116038v-12.116038h-12.116038z" fill="#f5f5f5"/><path clip-path="url(#a)" d="m257.062117 57.822453h12.116037v-12.116038h-12.116037z" fill="#f5f5f5"/><path clip-path="url(#a)" d="m269.178154 57.822453h12.116038v-12.116038h-12.116038z" fill="#f5f5f5"/><path clip-path="url(#a)" d="m281.294192 57.822453h12.116038v-12.116038h-12.116038z" fill="#f5f5f5"/><path clip-path="url(#a)" d="m293.41023 57.822453h12.116038v-12.116038h-12.116038z" fill="#f5f5f5"/><path clip-path="url(#a)" d="m305.526268 57.822453h12.116037v-12.116038h-12.116037z" fill="#f5f5f5"/><path clip-path="url(#a)" d="m317.642305 57.822453h12.116038v-12.116038h-12.116038z" fill="#f5f5f5"/><path clip-path="url(#a)" d="m329.758343 57.822453h12.116038v-12.116038h-12.116038z" fill="#f5f5f5"/><path clip-path="url(#a)" d="m341.874381 57.822453h12.116038v-12.116038h-12.116038z" fill="#f5f5f5"/><path clip-path="url(#a)" d="m353.990419 57.822453h12.116037v-12.116038h-12.116037z" fill="#f5f5f5"/><path clip-path="url(#a)" d="m366.106456 57.822453h12.116038v-12.116038h-12.116038z" fill="#f5f5f5"/><path clip-path="url(#a)" d="m378.222494 57.822453h12.116038v-12.116038h-12.116038z" fill="#f5f5f5"/><path clip-path="url(#a)" d="m390.338532 57.822453h12.116038v-12.116038h-12.116038z" fill="#f5f5f5"/><path clip-path="url(#a)" d="m402.45457 57.822453h12.116037v-12.116038h-12.116037z" fill="#f5f5f5"/><path clip-path="url(#a)" d="m414.570607 57.822453h12.116038v-12.116038h-12.116038z" fill="#f5f5f5"/><path clip-path="url(#a)" d="m426.686645 57.822453h12.116038v-12.116038h-12.116038z" fill="#f5f5f5"/><path clip-path="url(#a)" d="m438.802683 57.822453h12.116038v-12.116038h-12.116038z" fill="#f5f5f5"/><path clip-path="url(#a)" d="m450.918721 57.822453h12.116037v-12.116038h-12.116037z" fill="#f5f5f5"/><path clip-path="url(#a)" d="m463.034758 57.822453h12.116038v-12.116038h-12.116038z" fill="#f5f5f5"/><path clip-path="url(#a)" d="m475.150796 57.822453h12.116038v-12.116038h-12.116038z" fill="#f5f5f5"/><path clip-path="url(#a)" d="m487.266834 57.822453h12.116037v-12.116038h-12.116037z" fill="#f5f5f5"/><path clip-path="url(#a)" d="m499.382871 57.822453h12.116038v-12.116038h-12.116038z" fill="#f5f5f5"/><path clip-path="url(#a)" d="m511.498909 57.822453h12.116038v-12.116038h-12.116038z" fill="#f5f5f5"/><path clip-path="url(#a)" d="m523.614947 57.822453h12.116038v-12.116038h-12.116038z" fill="#f5f5f5"/><path clip-path="url(#a)" d="m535.730985 57.822453h12.116037v-12.116038h-12.116037z" fill="#f5f5f5"/><path clip-path="url(#a)" d="m547.847022 57.822453h12.116038v-12.116038h-12.116038z" fill="#f5f5f5"/><path clip-path="url(#a)" d="m559.96306 57.822453h12.116038v-12.116038h-12.116038z" fill="#f5f5f5"/><path clip-path="url(#a)" d="m572.079098 57.822453h12.116038v-12.116038h-12.116038z" fill="#f5f5f5"/><path clip-path="url(#a)" d="m584.195136 57.822453h12.116037v-12.116038h-12.116037z" fill="#f5f5f5"/><path clip-path="url(#a)" d="m596.311173 57.822453h12.116038v-12.116038h-12.116038z" fill="#f5f5f5"/><path clip-path="url(#a)" d="m608.427211 57.822453h12.116038v-12.116038h-12.116038z" fill="#f5f5f5"/><path clip-path="url(#a)" d="m620.543249 57.822453h12.116038v-12.116038h-12.116038z" fill="#f5f5f5"/><path clip-path="url(#a)" d="m632.659287 57.822453h12.116037v-12.116038h-12.116037z" fill="#f5f5f5"/><path clip-path="url(#a)" d="m644.775324 57.822453h12.116038v-12.116038h-12.116038z" fill="#f5f5f5"/><path clip-path="url(#a)" d="m656.891362 57.822453h12.116038v-12.116038h-12.116038z" fill="#f5f5f5"/><path clip-path="url(#a)" d="m669.0074 57.822453h12.116037v-12.116038h-12.116037z" fill="none"/><g fill="#f5f5f5"><path clip-path="url(#a)" d="m38.973438 45.706415h12.116037v-12.116038h-12.116037z"/><path clip-path="url(#a)" d="m51.089475 45.706415h12.116038v-12.116038h-12.116038z"/><path clip-path="url(#a)" d="m63.205513 45.706415h12.116038v-12.116038h-12.116038z"/><path clip-path="url(#a)" d="m75.321551 45.706415h12.116037v-12.116038h-12.116037z"/><path clip-path="url(#a)" d="m87.437588 45.706415h12.116038v-12.116038h-12.116038z"/><path clip-path="url(#a)" d="m99.553626 45.706415h12.116038v-12.116038h-12.116038z"/><path clip-path="url(#a)" d="m111.669664 45.706415h12.116038v-12.116038h-12.116038z"/><path clip-path="url(#a)" d="m123.785702 45.706415h12.116037v-12.116038h-12.116037z"/><path clip-path="url(#a)" d="m135.901739 45.706415h12.116038v-12.116038h-12.116038z"/><path clip-path="url(#a)" d="m148.017777 45.706415h12.116038v-12.116038h-12.116038z"/><path clip-path="url(#a)" d="m160.133815 45.706415h12.116038v-12.116038h-12.116038z"/><path clip-path="url(#a)" d="m172.249853 45.706415h12.116037v-12.116038h-12.116037z"/><path clip-path="url(#a)" d="m184.36589 45.706415h12.116038v-12.116038h-12.116038z"/><path clip-path="url(#a)" d="m196.481928 45.706415h12.116038v-12.116038h-12.116038z"/><path clip-path="url(#a)" d="m208.597966 45.706415h12.116038v-12.116038h-12.116038z"/><path clip-path="url(#a)" d="m220.714004 45.706415h12.116037v-12.116038h-12.116037z"/><path clip-path="url(#a)" d="m232.830041 45.706415h12.116038v-12.116038h-12.116038z"/><path clip-path="url(#a)" d="m244.946079 45.706415h12.116038v-12.116038h-12.116038z"/><path clip-path="url(#a)" d="m257.062117 45.706415h12.116037v-12.116038h-12.116037z"/><path clip-path="url(#a)" d="m269.178154 45.706415h12.116038v-12.116038h-12.116038z"/><path clip-path="url(#a)" d="m281.294192 45.706415h12.116038v-12.116038h-12.116038z"/><path clip-path="url(#a)" d="m293.41023 45.706415h12.116038v-12.116038h-12.116038z"/><path clip-path="url(#a)" d="m305.526268 45.706415h12.116037v-12.116038h-12.116037z"/><path clip-path="url(#a)" d="m317.642305 45.706415h12.116038v-12.116038h-12.116038z"/><path clip-path="url(#a)" d="m329.758343 45.706415h12.116038v-12.116038h-12.116038z"/><path clip-path="url(#a)" d="m341.874381 45.706415h12.116038v-12.116038h-12.116038z"/><path clip-path="url(#a)" d="m353.990419 45.706415h12.116037v-12.116038h-12.116037z"/><path clip-path="url(#a)" d="m366.106456 45.706415h12.116038v-12.116038h-12.116038z"/><path clip-path="url(#a)" d="m378.222494 45.706415h12.116038v-12.116038h-12.116038z"/><path clip-path="url(#a)" d="m390.338532 45.706415h12.116038v-12.116038h-12.116038z"/><path clip-path="url(#a)" d="m402.45457 45.706415h12.116037v-12.116038h-12.116037z"/><path clip-path="url(#a)" d="m414.570607 45.706415h12.116038v-12.116038h-12.116038z"/><path clip-path="url(#a)" d="m426.686645 45.706415h12.116038v-12.116038h-12.116038z"/><path clip-path="url(#a)" d="m438.802683 45.706415h12.116038v-12.116038h-12.116038z"/><path clip-path="url(#a)" d="m450.918721 45.706415h12.116037v-12.116038h-12.116037z"/><path clip-path="url(#a)" d="m463.034758 45.706415h12.116038v-12.116038h-12.116038z"/><path clip-path="url(#a)" d="m475.150796 45.706415h12.116038v-12.116038h-12.116038z"/><path clip-path="url(#a)" d="m487.266834 45.706415h12.116037v-12.116038h-12.116037z"/><path clip-path="url(#a)" d="m499.382871 45.706415h12.116038v-12.116038h-12.116038z"/><path clip-path="url(#a)" d="m511.498909 45.706415h12.116038v-12.116038h-12.116038z"/><path clip-path="url(#a)" d="m523.614947 45.706415h12.116038v-12.116038h-12.116038z"/><path clip-path="url(#a)" d="m535.730985 45.706415h12.116037v-12.116038h-12.116037z"/><path clip-path="url(#a)" d="m547.847022 45.706415h12.116038v-12.116038h-12.116038z"/><path clip-path="url(#a)" d="m559.96306 45.706415h12.116038v-12.116038h-12.116038z"/><path clip-path="url(#a)" d="m572.079098 45.706415h12.116038v-12.116038h-12.116038z"/><path clip-path="url(#a)" d="m584.195136 45.706415h12.116037v-12.116038h-12.116037z"/><path clip-path="url(#a)" d="m596.311173 45.706415h12.116038v-12.116038h-12.116038z"/><path clip-path="url(#a)" d="m608.427211 45.706415h12.116038v-12.116038h-12.116038z"/><path clip-path="url(#a)" d="m620.543249 45.706415h12.116038v-12.116038h-12.116038z"/><path clip-path="url(#a)" d="m632.659287 45.706415h12.116037v-12.116038h-12.116037z"/><path clip-path="url(#a)" d="m644.775324 45.706415h12.116038v-12.116038h-12.116038z"/><path clip-path="url(#a)" d="m656.891362 45.706415h12.116038v-12.116038h-12.116038z"/><path clip-path="url(#a)" d="m669.0074 45.706415h12.116037v-12.116038h-12.116037z"/></g><path clip-path="url(#a)" d="m38.973438 33.590377h12.116037v-12.116037h-12.116037z" fill="none"/><path clip-path="url(#a)" d="m51.089475 33.590377h12.116038v-12.116037h-12.116038z" fill="#f5f5f5"/><path clip-path="url(#a)" d="m63.205513 33.590377h12.116038v-12.116037h-12.116038z" fill="#f5f5f5"/><path clip-path="url(#a)" d="m75.321551 33.590377h12.116037v-12.116037h-12.116037z" fill="#f5f5f5"/><path clip-path="url(#a)" d="m87.437588 33.590377h12.116038v-12.116037h-12.116038z" fill="#f5f5f5"/><path clip-path="url(#a)" d="m99.553626 33.590377h12.116038v-12.116037h-12.116038z" fill="#f5f5f5"/><path clip-path="url(#a)" d="m111.669664 33.590377h12.116038v-12.116037h-12.116038z" fill="#f5f5f5"/><path clip-path="url(#a)" d="m123.785702 33.590377h12.116037v-12.116037h-12.116037z" fill="#f5f5f5"/><path clip-path="url(#a)" d="m135.901739 33.590377h12.116038v-12.116037h-12.116038z" fill="#f5f5f5"/><path clip-path="url(#a)" d="m148.017777 33.590377h12.116038v-12.116037h-12.116038z" fill="#f5f5f5"/><path clip-path="url(#a)" d="m160.133815 33.590377h12.116038v-12.116037h-12.116038z" fill="#f5f5f5"/><path clip-path="url(#a)" d="m172.249853 33.590377h12.116037v-12.116037h-12.116037z" fill="#f5f5f5"/><path clip-path="url(#a)" d="m184.36589 33.590377h12.116038v-12.116037h-12.116038z" fill="#f5f5f5"/><path clip-path="url(#a)" d="m196.481928 33.590377h12.116038v-12.116037h-12.116038z" fill="#f5f5f5"/><path clip-path="url(#a)" d="m208.597966 33.590377h12.116038v-12.116037h-12.116038z" fill="#f5f5f5"/><path clip-path="url(#a)" d="m220.714004 33.590377h12.116037v-12.116037h-12.116037z" fill="#f5f5f5"/><path clip-path="url(#a)" d="m232.830041 33.590377h12.116038v-12.116037h-12.116038z" fill="#f5f5f5"/><path clip-path="url(#a)" d="m244.946079 33.590377h12.116038v-12.116037h-12.116038z" fill="#f5f5f5"/><path clip-path="url(#a)" d="m257.062117 33.590377h12.116037v-12.116037h-12.116037z" fill="#f5f5f5"/><path clip-path="url(#a)" d="m269.178154 33.590377h12.116038v-12.116037h-12.116038z" fill="#f5f5f5"/><path clip-path="url(#a)" d="m281.294192 33.590377h12.116038v-12.116037h-12.116038z" fill="#f5f5f5"/><path clip-path="url(#a)" d="m293.41023 33.590377h12.116038v-12.116037h-12.116038z" fill="#f5f5f5"/><path clip-path="url(#a)" d="m305.526268 33.590377h12.116037v-12.116037h-12.116037z" fill="#f5f5f5"/><path clip-path="url(#a)" d="m317.642305 33.590377h12.116038v-12.116037h-12.116038z" fill="#f5f5f5"/><path clip-path="url(#a)" d="m329.758343 33.590377h12.116038v-12.116037h-12.116038z" fill="#f5f5f5"/><path clip-path="url(#a)" d="m341.874381 33.590377h12.116038v-12.116037h-12.116038z" fill="#f5f5f5"/><path clip-path="url(#a)" d="m353.990419 33.590377h12.116037v-12.116037h-12.116037z" fill="#f5f5f5"/><path clip-path="url(#a)" d="m366.106456 33.590377h12.116038v-12.116037h-12.116038z" fill="#f5f5f5"/><path clip-path="url(#a)" d="m378.222494 33.590377h12.116038v-12.116037h-12.116038z" fill="#f5f5f5"/><path clip-path="url(#a)" d="m390.338532 33.590377h12.116038v-12.116037h-12.116038z" fill="#f5f5f5"/><path clip-path="url(#a)" d="m402.45457 33.590377h12.116037v-12.116037h-12.116037z" fill="#f5f5f5"/><path clip-path="url(#a)" d="m414.570607 33.590377h12.116038v-12.116037h-12.116038z" fill="#f5f5f5"/><path clip-path="url(#a)" d="m426.686645 33.590377h12.116038v-12.116037h-12.116038z" fill="#f5f5f5"/><path clip-path="url(#a)" d="m438.802683 33.590377h12.116038v-12.116037h-12.116038z" fill="#f5f5f5"/><path clip-path="url(#a)" d="m450.918721 33.590377h12.116037v-12.116037h-12.116037z" fill="#f5f5f5"/><path clip-path="url(#a)" d="m463.034758 33.590377h12.116038v-12.116037h-12.116038z" fill="#f5f5f5"/><path clip-path="url(#a)" d="m475.150796 33.590377h12.116038v-12.116037h-12.116038z" fill="#f5f5f5"/><path clip-path="url(#a)" d="m487.266834 33.590377h12.116037v-12.116037h-12.116037z" fill="#f5f5f5"/><path clip-path="url(#a)" d="m499.382871 33.590377h12.116038v-12.116037h-12.116038z" fill="#f5f5f5"/><path clip-path="url(#a)" d="m511.498909 33.590377h12.116038v-12.116037h-12.116038z" fill="#f5f5f5"/><path clip-path="url(#a)" d="m523.614947 33.590377h12.116038v-12.116037h-12.116038z" fill="#f5f5f5"/><path clip-path="url(#a)" d="m535.730985 33.590377h12.116037v-12.116037h-12.116037z" fill="#f5f5f5"/><path clip-path="url(#a)" d="m547.847022 33.590377h12.116038v-12.116037h-12.116038z" fill="#f5f5f5"/><path clip-path="url(#a)" d="m559.96306 33.590377h12.116038v-12.116037h-12.116038z" fill="#f5f5f5"/><path clip-path="url(#a)" d="m572.079098 33.590377h12.116038v-12.116037h-12.116038z" fill="#f5f5f5"/><path clip-path="url(#a)" d="m584.195136 33.590377h12.116037v-12.116037h-12.116037z" fill="#f5f5f5"/><path clip-path="url(#a)" d="m596.311173 33.590377h12.116038v-12.116037h-12.116038z" fill="#f5f5f5"/><path clip-path="url(#a)" d="m608.427211 33.590377h12.116038v-12.116037h-12.116038z" fill="#f5f5f5"/><path clip-path="url(#a)" d="m620.543249 33.590377h12.116038v-12.116037h-12.116038z" fill="#f5f5f5"/><path clip-path="url(#a)" d="m632.659287 33.590377h12.116037v-12.116037h-12.116037z" fill="#f5f5f5"/><path clip-path="url(#a)" d="m644.775324 33.590377h12.116038v-12.116037h-12.116038z" fill="#f5f5f5"/><path clip-path="url(#a)" d="m656.891362 33.590377h12.116038v-12.116037h-12.116038z" fill="#f5f5f5"/><path clip-path="url(#a)" d="m669.0074 33.590377h12.116037v-12.116037h-12.116037z" fill="#f5f5f5"/></g><g stroke="#fff" stroke-linejoin="round"><path clip-path="url(#a)" d="m38.973438 106.286604h12.116037v-12.116038h-12.116037z" fill="#8bce81"/><path clip-path="url(#a)" d="m51.089475 106.286604h12.116038v-12.116038h-12.116038z" fill="#45ad5f"/><path clip-path="url(#a)" d="m63.205513 106.286604h12.116038v-12.116038h-12.116038z" fill="#8bce81"/><path clip-path="url(#a)" d="m75.321551 106.286604h12.116037v-12.116038h-12.116037z" fill="#8bce81"/><path clip-path="url(#a)" d="m87.437588 106.286604h12.116038v-12.116038h-12.116038z" fill="#b3e091"/><path clip-path="url(#a)" d="m99.553626 106.286604h12.116038v-12.116038h-12.116038z" fill="#bce395"/><path clip-path="url(#a)" d="m111.669664 106.286604h12.116038v-12.116038h-12.116038z" fill="#c8e99b"/><path clip-path="url(#a)" d="m123.785702 106.286604h12.116037v-12.116038h-12.116037z" fill="#98d486"/><path clip-path="url(#a)" d="m135.901739 106.286604h12.116038v-12.116038h-12.116038z" fill="#39a056"/><path clip-path="url(#a)" d="m148.017777 106.286604h12.116038v-12.116038h-12.116038z" fill="#6bc072"/><path clip-path="url(#a)" d="m160.133815 106.286604h12.116038v-12.116038h-12.116038z" fill="#afde8f"/><path clip-path="url(#a)" d="m172.249853 106.286604h12.116037v-12.116038h-12.116037z" fill="#42ab5d"/><path clip-path="url(#a)" d="m184.36589 106.286604h12.116038v-12.116038h-12.116038z" fill="#8bce81"/><path clip-path="url(#a)" d="m196.481928 106.286604h12.116038v-12.116038h-12.116038z" fill="#8bce81"/><path clip-path="url(#a)" d="m208.597966 106.286604h12.116038v-12.116038h-12.116038z" fill="#95d385"/><path clip-path="url(#a)" d="m220.714004 106.286604h12.116037v-12.116038h-12.116037z" fill="#88cd7f"/><path clip-path="url(#a)" d="m232.830041 106.286604h12.116038v-12.116038h-12.116038z" fill="#98d486"/><path clip-path="url(#a)" d="m244.946079 106.286604h12.116038v-12.116038h-12.116038z" fill="#7cc87b"/><path clip-path="url(#a)" d="m257.062117 106.286604h12.116037v-12.116038h-12.116037z" fill="#9dd688"/><path clip-path="url(#a)" d="m269.178154 106.286604h12.116038v-12.116038h-12.116038z" fill="#3fa85b"/><path clip-path="url(#a)" d="m281.294192 106.286604h12.116038v-12.116038h-12.116038z" fill="#81ca7d"/><path clip-path="url(#a)" d="m293.41023 106.286604h12.116038v-12.116038h-12.116038z" fill="#7cc87b"/><path clip-path="url(#a)" d="m305.526268 106.286604h12.116037v-12.116038h-12.116037z" fill="#acdd8e"/><path clip-path="url(#a)" d="m317.642305 106.286604h12.116038v-12.116038h-12.116038z" fill="#f7fcba"/><path clip-path="url(#a)" d="m329.758343 106.286604h12.116038v-12.116038h-12.116038z" fill="#81ca7d"/><path clip-path="url(#a)" d="m341.874381 106.286604h12.116038v-12.116038h-12.116038z" fill="#9fd788"/><path clip-path="url(#a)" d="m353.990419 106.286604h12.116037v-12.116038h-12.116037z" fill="#5db96b"/><path clip-path="url(#a)" d="m366.106456 106.286604h12.116038v-12.116038h-12.116038z" fill="#8bce81"/><path clip-path="url(#a)" d="m378.222494 106.286604h12.116038v-12.116038h-12.116038z" fill="#5fba6c"/><path clip-path="url(#a)" d="m390.338532 106.286604h12.116038v-12.116038h-12.116038z" fill="#8bce81"/><path clip-path="url(#a)" d="m402.45457 106.286604h12.116037v-12.116038h-12.116037z" fill="#4fb264"/><path clip-path="url(#a)" d="m414.570607 106.286604h12.116038v-12.116038h-12.116038z" fill="#f9fdc5"/><path clip-path="url(#a)" d="m426.686645 106.286604h12.116038v-12.116038h-12.116038z" fill="#e6f5ac"/><path clip-path="url(#a)" d="m438.802683 106.286604h12.116038v-12.116038h-12.116038z" fill="#a7db8c"/><path clip-path="url(#a)" d="m450.918721 106.286604h12.116037v-12.116038h-12.116037z" fill="#51b365"/><path clip-path="url(#a)" d="m463.034758 106.286604h12.116038v-12.116038h-12.116038z" fill="#8bce81"/><path clip-path="url(#a)" d="m475.150796 106.286604h12.116038v-12.116038h-12.116038z" fill="#47ae60"/><path clip-path="url(#a)" d="m487.266834 106.286604h12.116037v-12.116038h-12.116037z" fill="#53b466"/><path clip-path="url(#a)" d="m499.382871 106.286604h12.116038v-12.116038h-12.116038z" fill="#8bce81"/><path clip-path="url(#a)" d="m511.498909 106.286604h12.116038v-12.116038h-12.116038z" fill="#93d284"/><path clip-path="url(#a)" d="m523.614947 106.286604h12.116038v-12.116038h-12.116038z" fill="#74c477"/><path clip-path="url(#a)" d="m535.730985 106.286604h12.116037v-12.116038h-12.116037z" fill="#3fa85b"/><g fill="#8bce81"><path clip-path="url(#a)" d="m547.847022 106.286604h12.116038v-12.116038h-12.116038z"/><path clip-path="url(#a)" d="m559.96306 106.286604h12.116038v-12.116038h-12.116038z"/><path clip-path="url(#a)" d="m572.079098 106.286604h12.116038v-12.116038h-12.116038z"/><path clip-path="url(#a)" d="m584.195136 106.286604h12.116037v-12.116038h-12.116037z"/><path clip-path="url(#a)" d="m596.311173 106.286604h12.116038v-12.116038h-12.116038z"/><path clip-path="url(#a)" d="m608.427211 106.286604h12.116038v-12.116038h-12.116038z"/></g><path clip-path="url(#a)" d="m620.543249 106.286604h12.116038v-12.116038h-12.116038z" fill="#afde8f"/><path clip-path="url(#a)" d="m632.659287 106.286604h12.116037v-12.116038h-12.116037z" fill="#f6fcb8"/><path clip-path="url(#a)" d="m644.775324 106.286604h12.116038v-12.116038h-12.116038z" fill="#51b365"/><path clip-path="url(#a)" d="m656.891362 106.286604h12.116038v-12.116038h-12.116038z" fill="none"/><path clip-path="url(#a)" d="m669.0074 106.286604h12.116037v-12.116038h-12.116037z" fill="none"/><path clip-path="url(#a)" d="m38.973438 94.170566h12.116037v-12.116038h-12.116037z" fill="#def2a7"/><path clip-path="url(#a)" d="m51.089475 94.170566h12.116038v-12.116038h-12.116038z" fill="#8bce81"/><path clip-path="url(#a)" d="m63.205513 94.170566h12.116038v-12.116038h-12.116038z" fill="#8bce81"/><path clip-path="url(#a)" d="m75.321551 94.170566h12.116037v-12.116038h-12.116037z" fill="#4fb264"/><path clip-path="url(#a)" d="m87.437588 94.170566h12.116038v-12.116038h-12.116038z" fill="#84cb7e"/><path clip-path="url(#a)" d="m99.553626 94.170566h12.116038v-12.116038h-12.116038z" fill="#a6da8b"/><path clip-path="url(#a)" d="m111.669664 94.170566h12.116038v-12.116038h-12.116038z" fill="#81ca7d"/><path clip-path="url(#a)" d="m123.785702 94.170566h12.116037v-12.116038h-12.116037z" fill="#a1d889"/><path clip-path="url(#a)" d="m135.901739 94.170566h12.116038v-12.116038h-12.116038z" fill="#268846"/><path clip-path="url(#a)" d="m148.017777 94.170566h12.116038v-12.116038h-12.116038z" fill="#55b567"/><path clip-path="url(#a)" d="m160.133815 94.170566h12.116038v-12.116038h-12.116038z" fill="#b6e192"/><path clip-path="url(#a)" d="m172.249853 94.170566h12.116037v-12.116038h-12.116037z" fill="#6dc073"/><path clip-path="url(#a)" d="m184.36589 94.170566h12.116038v-12.116038h-12.116038z" fill="#359c53"/><path clip-path="url(#a)" d="m196.481928 94.170566h12.116038v-12.116038h-12.116038z" fill="#79c679"/><path clip-path="url(#a)" d="m208.597966 94.170566h12.116038v-12.116038h-12.116038z" fill="#c1e698"/><path clip-path="url(#a)" d="m220.714004 94.170566h12.116037v-12.116038h-12.116037z" fill="#55b567"/><path clip-path="url(#a)" d="m232.830041 94.170566h12.116038v-12.116038h-12.116038z" fill="#1e8041"/><path clip-path="url(#a)" d="m244.946079 94.170566h12.116038v-12.116038h-12.116038z" fill="#5cb86b"/><path clip-path="url(#a)" d="m257.062117 94.170566h12.116037v-12.116038h-12.116037z" fill="#8bce81"/><path clip-path="url(#a)" d="m269.178154 94.170566h12.116038v-12.116038h-12.116038z" fill="#6dc073"/><path clip-path="url(#a)" d="m281.294192 94.170566h12.116038v-12.116038h-12.116038z" fill="#d9f0a3"/><path clip-path="url(#a)" d="m293.41023 94.170566h12.116038v-12.116038h-12.116038z" fill="#1f8142"/><path clip-path="url(#a)" d="m305.526268 94.170566h12.116037v-12.116038h-12.116037z" fill="#8bce81"/><path clip-path="url(#a)" d="m317.642305 94.170566h12.116038v-12.116038h-12.116038z" fill="#339951"/><path clip-path="url(#a)" d="m329.758343 94.170566h12.116038v-12.116038h-12.116038z" fill="#e7f6ad"/><path clip-path="url(#a)" d="m341.874381 94.170566h12.116038v-12.116038h-12.116038z" fill="#acdd8e"/><path clip-path="url(#a)" d="m353.990419 94.170566h12.116037v-12.116038h-12.116037z" fill="#8bce81"/><path clip-path="url(#a)" d="m366.106456 94.170566h12.116038v-12.116038h-12.116038z" fill="#d5eea1"/><path clip-path="url(#a)" d="m378.222494 94.170566h12.116038v-12.116038h-12.116038z" fill="#8bce81"/><path clip-path="url(#a)" d="m390.338532 94.170566h12.116038v-12.116038h-12.116038z" fill="#8bce81"/><path clip-path="url(#a)" d="m402.45457 94.170566h12.116037v-12.116038h-12.116037z" fill="#81ca7d"/><path clip-path="url(#a)" d="m414.570607 94.170566h12.116038v-12.116038h-12.116038z" fill="#3ea75a"/><path clip-path="url(#a)" d="m426.686645 94.170566h12.116038v-12.116038h-12.116038z" fill="#55b567"/><path clip-path="url(#a)" d="m438.802683 94.170566h12.116038v-12.116038h-12.116038z" fill="#8bce81"/><path clip-path="url(#a)" d="m450.918721 94.170566h12.116037v-12.116038h-12.116037z" fill="#a2d88a"/><path clip-path="url(#a)" d="m463.034758 94.170566h12.116038v-12.116038h-12.116038z" fill="#8bce81"/><path clip-path="url(#a)" d="m475.150796 94.170566h12.116038v-12.116038h-12.116038z" fill="#8bce81"/><path clip-path="url(#a)" d="m487.266834 94.170566h12.116037v-12.116038h-12.116037z" fill="#dbf1a4"/><path clip-path="url(#a)" d="m499.382871 94.170566h12.116038v-12.116038h-12.116038z" fill="#83cb7d"/><path clip-path="url(#a)" d="m511.498909 94.170566h12.116038v-12.116038h-12.116038z" fill="#ddf2a6"/><path clip-path="url(#a)" d="m523.614947 94.170566h12.116038v-12.116038h-12.116038z" fill="#bce395"/><path clip-path="url(#a)" d="m535.730985 94.170566h12.116037v-12.116038h-12.116037z" fill="#8bce81"/><path clip-path="url(#a)" d="m547.847022 94.170566h12.116038v-12.116038h-12.116038z" fill="#c1e698"/><path clip-path="url(#a)" d="m559.96306 94.170566h12.116038v-12.116038h-12.116038z" fill="#8bce81"/><path clip-path="url(#a)" d="m572.079098 94.170566h12.116038v-12.116038h-12.116038z" fill="#d2eda0"/><path clip-path="url(#a)" d="m584.195136 94.170566h12.116037v-12.116038h-12.116037z" fill="#288a47"/><path clip-path="url(#a)" d="m596.311173 94.170566h12.116038v-12.116038h-12.116038z" fill="#61bb6d"/><path clip-path="url(#a)" d="m608.427211 94.170566h12.116038v-12.116038h-12.116038z" fill="#b9e294"/><path clip-path="url(#a)" d="m620.543249 94.170566h12.116038v-12.116038h-12.116038z" fill="#004529"/><path clip-path="url(#a)" d="m632.659287 94.170566h12.116037v-12.116038h-12.116037z" fill="#00472a"/><path clip-path="url(#a)" d="m644.775324 94.170566h12.116038v-12.116038h-12.116038z" fill="#15793e"/><path clip-path="url(#a)" d="m656.891362 94.170566h12.116038v-12.116038h-12.116038z" fill="none"/><path clip-path="url(#a)" d="m669.0074 94.170566h12.116037v-12.116038h-12.116037z" fill="none"/><path clip-path="url(#a)" d="m38.973438 82.054528h12.116037v-12.116037h-12.116037z" fill="#8bce81"/><path clip-path="url(#a)" d="m51.089475 82.054528h12.116038v-12.116037h-12.116038z" fill="#ddf2a6"/><path clip-path="url(#a)" d="m63.205513 82.054528h12.116038v-12.116037h-12.116038z" fill="#7fc97c"/><path clip-path="url(#a)" d="m75.321551 82.054528h12.116037v-12.116037h-12.116037z" fill="#7ec97b"/><path clip-path="url(#a)" d="m87.437588 82.054528h12.116038v-12.116037h-12.116038z" fill="#8bce81"/><path clip-path="url(#a)" d="m99.553626 82.054528h12.116038v-12.116037h-12.116038z" fill="#a4d98a"/><path clip-path="url(#a)" d="m111.669664 82.054528h12.116038v-12.116037h-12.116038z" fill="#d7efa2"/><path clip-path="url(#a)" d="m123.785702 82.054528h12.116037v-12.116037h-12.116037z" fill="#8bce81"/><path clip-path="url(#a)" d="m135.901739 82.054528h12.116038v-12.116037h-12.116038z" fill="#8bce81"/><path clip-path="url(#a)" d="m148.017777 82.054528h12.116038v-12.116037h-12.116038z" fill="#8bce81"/><path clip-path="url(#a)" d="m160.133815 82.054528h12.116038v-12.116037h-12.116038z" fill="#9cd687"/><path clip-path="url(#a)" d="m172.249853 82.054528h12.116037v-12.116037h-12.116037z" fill="#2f934d"/><path clip-path="url(#a)" d="m184.36589 82.054528h12.116038v-12.116037h-12.116038z" fill="#3aa257"/><path clip-path="url(#a)" d="m196.481928 82.054528h12.116038v-12.116037h-12.116038z" fill="#8bce81"/><path clip-path="url(#a)" d="m208.597966 82.054528h12.116038v-12.116037h-12.116038z" fill="#8bce81"/><path clip-path="url(#a)" d="m220.714004 82.054528h12.116037v-12.116037h-12.116037z" fill="#5fba6c"/><path clip-path="url(#a)" d="m232.830041 82.054528h12.116038v-12.116037h-12.116038z" fill="#77c679"/><path clip-path="url(#a)" d="m244.946079 82.054528h12.116038v-12.116037h-12.116038z" fill="#66bd70"/><path clip-path="url(#a)" d="m257.062117 82.054528h12.116037v-12.116037h-12.116037z" fill="#298c48"/><path clip-path="url(#a)" d="m269.178154 82.054528h12.116038v-12.116037h-12.116038z" fill="#197c40"/><path clip-path="url(#a)" d="m281.294192 82.054528h12.116038v-12.116037h-12.116038z" fill="#8bce81"/><path clip-path="url(#a)" d="m293.41023 82.054528h12.116038v-12.116037h-12.116038z" fill="#ddf2a6"/><path clip-path="url(#a)" d="m305.526268 82.054528h12.116037v-12.116037h-12.116037z" fill="#47ae60"/><path clip-path="url(#a)" d="m317.642305 82.054528h12.116038v-12.116037h-12.116038z" fill="#53b466"/><path clip-path="url(#a)" d="m329.758343 82.054528h12.116038v-12.116037h-12.116038z" fill="#a1d889"/><path clip-path="url(#a)" d="m341.874381 82.054528h12.116038v-12.116037h-12.116038z" fill="#b1df90"/><path clip-path="url(#a)" d="m353.990419 82.054528h12.116037v-12.116037h-12.116037z" fill="#7cc87b"/><path clip-path="url(#a)" d="m366.106456 82.054528h12.116038v-12.116037h-12.116038z" fill="#8bce81"/><path clip-path="url(#a)" d="m378.222494 82.054528h12.116038v-12.116037h-12.116038z" fill="#58b669"/><path clip-path="url(#a)" d="m390.338532 82.054528h12.116038v-12.116037h-12.116038z" fill="#eff9b3"/><path clip-path="url(#a)" d="m402.45457 82.054528h12.116037v-12.116037h-12.116037z" fill="#8bce81"/><path clip-path="url(#a)" d="m414.570607 82.054528h12.116038v-12.116037h-12.116038z" fill="#7ec97b"/><path clip-path="url(#a)" d="m426.686645 82.054528h12.116038v-12.116037h-12.116038z" fill="#5fba6c"/><path clip-path="url(#a)" d="m438.802683 82.054528h12.116038v-12.116037h-12.116038z" fill="#9fd788"/><path clip-path="url(#a)" d="m450.918721 82.054528h12.116037v-12.116037h-12.116037z" fill="#8bce81"/><path clip-path="url(#a)" d="m463.034758 82.054528h12.116038v-12.116037h-12.116038z" fill="#b3e091"/><path clip-path="url(#a)" d="m475.150796 82.054528h12.116038v-12.116037h-12.116038z" fill="#dbf1a4"/><path clip-path="url(#a)" d="m487.266834 82.054528h12.116037v-12.116037h-12.116037z" fill="#2b8e4a"/><path clip-path="url(#a)" d="m499.382871 82.054528h12.116038v-12.116037h-12.116038z" fill="#8bce81"/><path clip-path="url(#a)" d="m511.498909 82.054528h12.116038v-12.116037h-12.116038z" fill="#7fc97c"/><path clip-path="url(#a)" d="m523.614947 82.054528h12.116038v-12.116037h-12.116038z" fill="#bee596"/><path clip-path="url(#a)" d="m535.730985 82.054528h12.116037v-12.116037h-12.116037z" fill="#288a47"/><path clip-path="url(#a)" d="m547.847022 82.054528h12.116038v-12.116037h-12.116038z" fill="#55b567"/><path clip-path="url(#a)" d="m559.96306 82.054528h12.116038v-12.116037h-12.116038z" fill="#58b669"/><path clip-path="url(#a)" d="m572.079098 82.054528h12.116038v-12.116037h-12.116038z" fill="#a2d88a"/><path clip-path="url(#a)" d="m584.195136 82.054528h12.116037v-12.116037h-12.116037z" fill="#8bce81"/><path clip-path="url(#a)" d="m596.311173 82.054528h12.116038v-12.116037h-12.116038z" fill="#8bce81"/><path clip-path="url(#a)" d="m608.427211 82.054528h12.116038v-12.116037h-12.116038z" fill="#0c723b"/><path clip-path="url(#a)" d="m620.543249 82.054528h12.116038v-12.116037h-12.116038z" fill="#4fb264"/><path clip-path="url(#a)" d="m632.659287 82.054528h12.116037v-12.116037h-12.116037z" fill="#b5e092"/><path clip-path="url(#a)" d="m644.775324 82.054528h12.116038v-12.116037h-12.116038z" fill="#bae394"/><path clip-path="url(#a)" d="m656.891362 82.054528h12.116038v-12.116037h-12.116038z" fill="none"/><path clip-path="url(#a)" d="m669.0074 82.054528h12.116037v-12.116037h-12.116037z" fill="none"/><path clip-path="url(#a)" d="m38.973438 69.938491h12.116037v-12.116038h-12.116037z" fill="#14783e"/><path clip-path="url(#a)" d="m51.089475 69.938491h12.116038v-12.116038h-12.116038z" fill="#8bce81"/><path clip-path="url(#a)" d="m63.205513 69.938491h12.116038v-12.116038h-12.116038z" fill="#8ed082"/><path clip-path="url(#a)" d="m75.321551 69.938491h12.116037v-12.116038h-12.116037z" fill="#98d486"/><path clip-path="url(#a)" d="m87.437588 69.938491h12.116038v-12.116038h-12.116038z" fill="#74c477"/><path clip-path="url(#a)" d="m99.553626 69.938491h12.116038v-12.116038h-12.116038z" fill="#8bce81"/><path clip-path="url(#a)" d="m111.669664 69.938491h12.116038v-12.116038h-12.116038z" fill="#c3e698"/><path clip-path="url(#a)" d="m123.785702 69.938491h12.116037v-12.116038h-12.116037z" fill="#98d486"/><path clip-path="url(#a)" d="m135.901739 69.938491h12.116038v-12.116038h-12.116038z" fill="#8bce81"/><path clip-path="url(#a)" d="m148.017777 69.938491h12.116038v-12.116038h-12.116038z" fill="#8bce81"/><path clip-path="url(#a)" d="m160.133815 69.938491h12.116038v-12.116038h-12.116038z" fill="#e1f3a9"/><path clip-path="url(#a)" d="m172.249853 69.938491h12.116037v-12.116038h-12.116037z" fill="#359c53"/><path clip-path="url(#a)" d="m184.36589 69.938491h12.116038v-12.116038h-12.116038z" fill="#64bc6f"/><path clip-path="url(#a)" d="m196.481928 69.938491h12.116038v-12.116038h-12.116038z" fill="#92d183"/><path clip-path="url(#a)" d="m208.597966 69.938491h12.116038v-12.116038h-12.116038z" fill="#92d183"/><path clip-path="url(#a)" d="m220.714004 69.938491h12.116037v-12.116038h-12.116037z" fill="#8bce81"/><path clip-path="url(#a)" d="m232.830041 69.938491h12.116038v-12.116038h-12.116038z" fill="#8dcf81"/><path clip-path="url(#a)" d="m244.946079 69.938491h12.116038v-12.116038h-12.116038z" fill="#fbfed2"/><path clip-path="url(#a)" d="m257.062117 69.938491h12.116037v-12.116038h-12.116037z" fill="#75c578"/><path clip-path="url(#a)" d="m269.178154 69.938491h12.116038v-12.116038h-12.116038z" fill="#8bce81"/><path clip-path="url(#a)" d="m281.294192 69.938491h12.116038v-12.116038h-12.116038z" fill="#8bce81"/><path clip-path="url(#a)" d="m293.41023 69.938491h12.116038v-12.116038h-12.116038z" fill="#51b365"/><path clip-path="url(#a)" d="m305.526268 69.938491h12.116037v-12.116038h-12.116037z" fill="#d3eda0"/><path clip-path="url(#a)" d="m317.642305 69.938491h12.116038v-12.116038h-12.116038z" fill="#8bce81"/><path clip-path="url(#a)" d="m329.758343 69.938491h12.116038v-12.116038h-12.116038z" fill="#72c376"/><path clip-path="url(#a)" d="m341.874381 69.938491h12.116038v-12.116038h-12.116038z" fill="#8bce81"/><path clip-path="url(#a)" d="m353.990419 69.938491h12.116037v-12.116038h-12.116037z" fill="#74c477"/><path clip-path="url(#a)" d="m366.106456 69.938491h12.116038v-12.116038h-12.116038z" fill="#2f944e"/><path clip-path="url(#a)" d="m378.222494 69.938491h12.116038v-12.116038h-12.116038z" fill="#a2d88a"/><path clip-path="url(#a)" d="m390.338532 69.938491h12.116038v-12.116038h-12.116038z" fill="#a6da8b"/><path clip-path="url(#a)" d="m402.45457 69.938491h12.116037v-12.116038h-12.116037z" fill="#8bce81"/><path clip-path="url(#a)" d="m414.570607 69.938491h12.116038v-12.116038h-12.116038z" fill="#69bf72"/><path clip-path="url(#a)" d="m426.686645 69.938491h12.116038v-12.116038h-12.116038z" fill="#7ac77a"/><path clip-path="url(#a)" d="m438.802683 69.938491h12.116038v-12.116038h-12.116038z" fill="#c5e89a"/><path clip-path="url(#a)" d="m450.918721 69.938491h12.116037v-12.116038h-12.116037z" fill="#8bce81"/><path clip-path="url(#a)" d="m463.034758 69.938491h12.116038v-12.116038h-12.116038z" fill="#8bce81"/><path clip-path="url(#a)" d="m475.150796 69.938491h12.116038v-12.116038h-12.116038z" fill="#dbf1a4"/><path clip-path="url(#a)" d="m487.266834 69.938491h12.116037v-12.116038h-12.116037z" fill="#8bce81"/><path clip-path="url(#a)" d="m499.382871 69.938491h12.116038v-12.116038h-12.116038z" fill="#8bce81"/><path clip-path="url(#a)" d="m511.498909 69.938491h12.116038v-12.116038h-12.116038z" fill="#8bce81"/><path clip-path="url(#a)" d="m523.614947 69.938491h12.116038v-12.116038h-12.116038z" fill="#a4d98a"/><path clip-path="url(#a)" d="m535.730985 69.938491h12.116037v-12.116038h-12.116037z" fill="#339951"/><path clip-path="url(#a)" d="m547.847022 69.938491h12.116038v-12.116038h-12.116038z" fill="#8bce81"/><path clip-path="url(#a)" d="m559.96306 69.938491h12.116038v-12.116038h-12.116038z" fill="#dbf1a4"/><path clip-path="url(#a)" d="m572.079098 69.938491h12.116038v-12.116038h-12.116038z" fill="#2f944e"/><path clip-path="url(#a)" d="m584.195136 69.938491h12.116037v-12.116038h-12.116037z" fill="#c7e89a"/><path clip-path="url(#a)" d="m596.311173 69.938491h12.116038v-12.116038h-12.116038z" fill="#8bce81"/><path clip-path="url(#a)" d="m608.427211 69.938491h12.116038v-12.116038h-12.116038z" fill="#8bce81"/><path clip-path="url(#a)" d="m620.543249 69.938491h12.116038v-12.116038h-12.116038z" fill="#d6efa2"/><path clip-path="url(#a)" d="m632.659287 69.938491h12.116037v-12.116038h-12.116037z" fill="#e1f3a9"/><path clip-path="url(#a)" d="m644.775324 69.938491h12.116038v-12.116038h-12.116038z" fill="#d3eda0"/><path clip-path="url(#a)" d="m656.891362 69.938491h12.116038v-12.116038h-12.116038z" fill="#9ad587"/><path clip-path="url(#a)" d="m669.0074 69.938491h12.116037v-12.116038h-12.116037z" fill="none"/><path clip-path="url(#a)" d="m38.973438 57.822453h12.116037v-12.116038h-12.116037z" fill="#8bce81"/><path clip-path="url(#a)" d="m51.089475 57.822453h12.116038v-12.116038h-12.116038z" fill="#0d733c"/><path clip-path="url(#a)" d="m63.205513 57.822453h12.116038v-12.116038h-12.116038z" fill="#7ec97b"/><path clip-path="url(#a)" d="m75.321551 57.822453h12.116037v-12.116038h-12.116037z" fill="#e1f3a9"/><path clip-path="url(#a)" d="m87.437588 57.822453h12.116038v-12.116038h-12.116038z" fill="#2f944e"/><path clip-path="url(#a)" d="m99.553626 57.822453h12.116038v-12.116038h-12.116038z" fill="#47ae60"/><path clip-path="url(#a)" d="m111.669664 57.822453h12.116038v-12.116038h-12.116038z" fill="#feffdf"/><path clip-path="url(#a)" d="m123.785702 57.822453h12.116037v-12.116038h-12.116037z" fill="#69bf72"/><path clip-path="url(#a)" d="m135.901739 57.822453h12.116038v-12.116038h-12.116038z" fill="#d6efa2"/><path clip-path="url(#a)" d="m148.017777 57.822453h12.116038v-12.116038h-12.116038z" fill="#30954f"/><path clip-path="url(#a)" d="m160.133815 57.822453h12.116038v-12.116038h-12.116038z" fill="#49af61"/><path clip-path="url(#a)" d="m172.249853 57.822453h12.116037v-12.116038h-12.116037z" fill="#8bce81"/><path clip-path="url(#a)" d="m184.36589 57.822453h12.116038v-12.116038h-12.116038z" fill="#b3e091"/><path clip-path="url(#a)" d="m196.481928 57.822453h12.116038v-12.116038h-12.116038z" fill="#dcf1a5"/><path clip-path="url(#a)" d="m208.597966 57.822453h12.116038v-12.116038h-12.116038z" fill="#8bce81"/><path clip-path="url(#a)" d="m220.714004 57.822453h12.116037v-12.116038h-12.116037z" fill="#4fb264"/><path clip-path="url(#a)" d="m232.830041 57.822453h12.116038v-12.116038h-12.116038z" fill="#43ac5e"/><path clip-path="url(#a)" d="m244.946079 57.822453h12.116038v-12.116038h-12.116038z" fill="#79c679"/><path clip-path="url(#a)" d="m257.062117 57.822453h12.116037v-12.116038h-12.116037z" fill="#8bce81"/><path clip-path="url(#a)" d="m269.178154 57.822453h12.116038v-12.116038h-12.116038z" fill="#d6efa2"/><path clip-path="url(#a)" d="m281.294192 57.822453h12.116038v-12.116038h-12.116038z" fill="#69bf72"/><path clip-path="url(#a)" d="m293.41023 57.822453h12.116038v-12.116038h-12.116038z" fill="#bae394"/><path clip-path="url(#a)" d="m305.526268 57.822453h12.116037v-12.116038h-12.116037z" fill="#9dd688"/><path clip-path="url(#a)" d="m317.642305 57.822453h12.116038v-12.116038h-12.116038z" fill="#86cc7f"/><path clip-path="url(#a)" d="m329.758343 57.822453h12.116038v-12.116038h-12.116038z" fill="#40aa5c"/><path clip-path="url(#a)" d="m341.874381 57.822453h12.116038v-12.116038h-12.116038z" fill="#d7efa2"/><path clip-path="url(#a)" d="m353.990419 57.822453h12.116037v-12.116038h-12.116037z" fill="#1d7f41"/><path clip-path="url(#a)" d="m366.106456 57.822453h12.116038v-12.116038h-12.116038z" fill="#7ac77a"/><path clip-path="url(#a)" d="m378.222494 57.822453h12.116038v-12.116038h-12.116038z" fill="#feffdf"/><path clip-path="url(#a)" d="m390.338532 57.822453h12.116038v-12.116038h-12.116038z" fill="#39a056"/><path clip-path="url(#a)" d="m402.45457 57.822453h12.116037v-12.116038h-12.116037z" fill="#298c48"/><path clip-path="url(#a)" d="m414.570607 57.822453h12.116038v-12.116038h-12.116038z" fill="#c4e799"/><path clip-path="url(#a)" d="m426.686645 57.822453h12.116038v-12.116038h-12.116038z" fill="#cfec9e"/><path clip-path="url(#a)" d="m438.802683 57.822453h12.116038v-12.116038h-12.116038z" fill="#40aa5c"/><path clip-path="url(#a)" d="m450.918721 57.822453h12.116037v-12.116038h-12.116037z" fill="#8bce81"/><path clip-path="url(#a)" d="m463.034758 57.822453h12.116038v-12.116038h-12.116038z" fill="#8bce81"/><path clip-path="url(#a)" d="m475.150796 57.822453h12.116038v-12.116038h-12.116038z" fill="#8bce81"/><path clip-path="url(#a)" d="m487.266834 57.822453h12.116037v-12.116038h-12.116037z" fill="#8bce81"/><path clip-path="url(#a)" d="m499.382871 57.822453h12.116038v-12.116038h-12.116038z" fill="#a4d98a"/><path clip-path="url(#a)" d="m511.498909 57.822453h12.116038v-12.116038h-12.116038z" fill="#aedd8e"/><path clip-path="url(#a)" d="m523.614947 57.822453h12.116038v-12.116038h-12.116038z" fill="#8bce81"/><path clip-path="url(#a)" d="m535.730985 57.822453h12.116037v-12.116038h-12.116037z" fill="#9dd688"/><path clip-path="url(#a)" d="m547.847022 57.822453h12.116038v-12.116038h-12.116038z" fill="#a6da8b"/><path clip-path="url(#a)" d="m559.96306 57.822453h12.116038v-12.116038h-12.116038z" fill="#9cd687"/><path clip-path="url(#a)" d="m572.079098 57.822453h12.116038v-12.116038h-12.116038z" fill="#acdd8e"/><path clip-path="url(#a)" d="m584.195136 57.822453h12.116037v-12.116038h-12.116037z" fill="#79c679"/><path clip-path="url(#a)" d="m596.311173 57.822453h12.116038v-12.116038h-12.116038z" fill="#0a703a"/><path clip-path="url(#a)" d="m608.427211 57.822453h12.116038v-12.116038h-12.116038z" fill="#6fc174"/><path clip-path="url(#a)" d="m620.543249 57.822453h12.116038v-12.116038h-12.116038z" fill="#8bce81"/><path clip-path="url(#a)" d="m632.659287 57.822453h12.116037v-12.116038h-12.116037z" fill="#8bce81"/><path clip-path="url(#a)" d="m644.775324 57.822453h12.116038v-12.116038h-12.116038z" fill="#98d486"/><path clip-path="url(#a)" d="m656.891362 57.822453h12.116038v-12.116038h-12.116038z" fill="#8bce81"/><path clip-path="url(#a)" d="m669.0074 57.822453h12.116037v-12.116038h-12.116037z" fill="none"/><path clip-path="url(#a)" d="m38.973438 45.706415h12.116037v-12.116038h-12.116037z" fill="#72c376"/><path clip-path="url(#a)" d="m51.089475 45.706415h12.116038v-12.116038h-12.116038z" fill="#ddf2a6"/><path clip-path="url(#a)" d="m63.205513 45.706415h12.116038v-12.116038h-12.116038z" fill="#e1f3a9"/><path clip-path="url(#a)" d="m75.321551 45.706415h12.116037v-12.116038h-12.116037z" fill="#8bce81"/><path clip-path="url(#a)" d="m87.437588 45.706415h12.116038v-12.116038h-12.116038z" fill="#7cc87b"/><path clip-path="url(#a)" d="m99.553626 45.706415h12.116038v-12.116038h-12.116038z" fill="#7ec97b"/><path clip-path="url(#a)" d="m111.669664 45.706415h12.116038v-12.116038h-12.116038z" fill="#8bce81"/><path clip-path="url(#a)" d="m123.785702 45.706415h12.116037v-12.116038h-12.116037z" fill="#8bce81"/><path clip-path="url(#a)" d="m135.901739 45.706415h12.116038v-12.116038h-12.116038z" fill="#8bce81"/><path clip-path="url(#a)" d="m148.017777 45.706415h12.116038v-12.116038h-12.116038z" fill="#51b365"/><path clip-path="url(#a)" d="m160.133815 45.706415h12.116038v-12.116038h-12.116038z" fill="#81ca7d"/><path clip-path="url(#a)" d="m172.249853 45.706415h12.116037v-12.116038h-12.116037z" fill="#69bf72"/><path clip-path="url(#a)" d="m184.36589 45.706415h12.116038v-12.116038h-12.116038z" fill="#8bce81"/><path clip-path="url(#a)" d="m196.481928 45.706415h12.116038v-12.116038h-12.116038z" fill="#5fba6c"/><path clip-path="url(#a)" d="m208.597966 45.706415h12.116038v-12.116038h-12.116038z" fill="#268846"/><path clip-path="url(#a)" d="m220.714004 45.706415h12.116037v-12.116038h-12.116037z" fill="#88cd7f"/><path clip-path="url(#a)" d="m232.830041 45.706415h12.116038v-12.116038h-12.116038z" fill="#d5eea1"/><path clip-path="url(#a)" d="m244.946079 45.706415h12.116038v-12.116038h-12.116038z" fill="#95d385"/><path clip-path="url(#a)" d="m257.062117 45.706415h12.116037v-12.116038h-12.116037z" fill="#58b669"/><path clip-path="url(#a)" d="m269.178154 45.706415h12.116038v-12.116038h-12.116038z" fill="#86cc7f"/><path clip-path="url(#a)" d="m281.294192 45.706415h12.116038v-12.116038h-12.116038z" fill="#e0f3a8"/><path clip-path="url(#a)" d="m293.41023 45.706415h12.116038v-12.116038h-12.116038z" fill="#56b568"/><path clip-path="url(#a)" d="m305.526268 45.706415h12.116037v-12.116038h-12.116037z" fill="#8bce81"/><path clip-path="url(#a)" d="m317.642305 45.706415h12.116038v-12.116038h-12.116038z" fill="#3ca458"/><path clip-path="url(#a)" d="m329.758343 45.706415h12.116038v-12.116038h-12.116038z" fill="#086e3a"/><path clip-path="url(#a)" d="m341.874381 45.706415h12.116038v-12.116038h-12.116038z" fill="#8bce81"/><path clip-path="url(#a)" d="m353.990419 45.706415h12.116037v-12.116038h-12.116037z" fill="#edf8b2"/><path clip-path="url(#a)" d="m366.106456 45.706415h12.116038v-12.116038h-12.116038z" fill="#026a38"/><path clip-path="url(#a)" d="m378.222494 45.706415h12.116038v-12.116038h-12.116038z" fill="#7ec97b"/><path clip-path="url(#a)" d="m390.338532 45.706415h12.116038v-12.116038h-12.116038z" fill="#3ea75a"/><path clip-path="url(#a)" d="m402.45457 45.706415h12.116037v-12.116038h-12.116037z" fill="#bce395"/><path clip-path="url(#a)" d="m414.570607 45.706415h12.116038v-12.116038h-12.116038z" fill="#a1d889"/><path clip-path="url(#a)" d="m426.686645 45.706415h12.116038v-12.116038h-12.116038z" fill="#8bce81"/><path clip-path="url(#a)" d="m438.802683 45.706415h12.116038v-12.116038h-12.116038z" fill="#8bce81"/><path clip-path="url(#a)" d="m450.918721 45.706415h12.116037v-12.116038h-12.116037z" fill="#bde496"/><path clip-path="url(#a)" d="m463.034758 45.706415h12.116038v-12.116038h-12.116038z" fill="#076d39"/><path clip-path="url(#a)" d="m475.150796 45.706415h12.116038v-12.116038h-12.116038z" fill="#40aa5c"/><path clip-path="url(#a)" d="m487.266834 45.706415h12.116037v-12.116038h-12.116037z" fill="#8bce81"/><path clip-path="url(#a)" d="m499.382871 45.706415h12.116038v-12.116038h-12.116038z" fill="#66bd70"/><path clip-path="url(#a)" d="m511.498909 45.706415h12.116038v-12.116038h-12.116038z" fill="#70c275"/><path clip-path="url(#a)" d="m523.614947 45.706415h12.116038v-12.116038h-12.116038z" fill="#6fc174"/><path clip-path="url(#a)" d="m535.730985 45.706415h12.116037v-12.116038h-12.116037z" fill="#8bce81"/><path clip-path="url(#a)" d="m547.847022 45.706415h12.116038v-12.116038h-12.116038z" fill="#e5f5ac"/><path clip-path="url(#a)" d="m559.96306 45.706415h12.116038v-12.116038h-12.116038z" fill="#3ea75a"/><path clip-path="url(#a)" d="m572.079098 45.706415h12.116038v-12.116038h-12.116038z" fill="#2d914b"/><path clip-path="url(#a)" d="m584.195136 45.706415h12.116037v-12.116038h-12.116037z" fill="#b6e192"/><path clip-path="url(#a)" d="m596.311173 45.706415h12.116038v-12.116038h-12.116038z" fill="#89ce80"/><path clip-path="url(#a)" d="m608.427211 45.706415h12.116038v-12.116038h-12.116038z" fill="#8bce81"/><path clip-path="url(#a)" d="m620.543249 45.706415h12.116038v-12.116038h-12.116038z" fill="#c5e89a"/><path clip-path="url(#a)" d="m632.659287 45.706415h12.116037v-12.116038h-12.116037z" fill="#84cb7e"/><path clip-path="url(#a)" d="m644.775324 45.706415h12.116038v-12.116038h-12.116038z" fill="#a1d889"/><path clip-path="url(#a)" d="m656.891362 45.706415h12.116038v-12.116038h-12.116038z" fill="#8bce81"/><path clip-path="url(#a)" d="m669.0074 45.706415h12.116037v-12.116038h-12.116037z" fill="none"/><path clip-path="url(#a)" d="m38.973438 33.590377h12.116037v-12.116037h-12.116037z" fill="none"/><path clip-path="url(#a)" d="m51.089475 33.590377h12.116038v-12.116037h-12.116038z" fill="#58b669"/><path clip-path="url(#a)" d="m63.205513 33.590377h12.116038v-12.116037h-12.116038z" fill="#55b567"/><path clip-path="url(#a)" d="m75.321551 33.590377h12.116037v-12.116037h-12.116037z" fill="#fafdcc"/><path clip-path="url(#a)" d="m87.437588 33.590377h12.116038v-12.116037h-12.116038z" fill="#d3eda0"/><path clip-path="url(#a)" d="m99.553626 33.590377h12.116038v-12.116037h-12.116038z" fill="#bde496"/><path clip-path="url(#a)" d="m111.669664 33.590377h12.116038v-12.116037h-12.116038z" fill="#6fc174"/><path clip-path="url(#a)" d="m123.785702 33.590377h12.116037v-12.116037h-12.116037z" fill="#81ca7d"/><path clip-path="url(#a)" d="m135.901739 33.590377h12.116038v-12.116037h-12.116038z" fill="#3da559"/><path clip-path="url(#a)" d="m148.017777 33.590377h12.116038v-12.116037h-12.116038z" fill="#389f55"/><path clip-path="url(#a)" d="m160.133815 33.590377h12.116038v-12.116037h-12.116038z" fill="#d7efa2"/><path clip-path="url(#a)" d="m172.249853 33.590377h12.116037v-12.116037h-12.116037z" fill="#f3fab6"/><path clip-path="url(#a)" d="m184.36589 33.590377h12.116038v-12.116037h-12.116038z" fill="#d0ec9f"/><path clip-path="url(#a)" d="m196.481928 33.590377h12.116038v-12.116037h-12.116038z" fill="#5db96b"/><path clip-path="url(#a)" d="m208.597966 33.590377h12.116038v-12.116037h-12.116038z" fill="#95d385"/><path clip-path="url(#a)" d="m220.714004 33.590377h12.116037v-12.116037h-12.116037z" fill="#89ce80"/><path clip-path="url(#a)" d="m232.830041 33.590377h12.116038v-12.116037h-12.116038z" fill="#dff3a8"/><path clip-path="url(#a)" d="m244.946079 33.590377h12.116038v-12.116037h-12.116038z" fill="#b5e092"/><path clip-path="url(#a)" d="m257.062117 33.590377h12.116037v-12.116037h-12.116037z" fill="#97d385"/><path clip-path="url(#a)" d="m269.178154 33.590377h12.116038v-12.116037h-12.116038z" fill="#eff9b3"/><path clip-path="url(#a)" d="m281.294192 33.590377h12.116038v-12.116037h-12.116038z" fill="#3fa95c"/><path clip-path="url(#a)" d="m293.41023 33.590377h12.116038v-12.116037h-12.116038z" fill="#8bce81"/><path clip-path="url(#a)" d="m305.526268 33.590377h12.116037v-12.116037h-12.116037z" fill="#8bce81"/><path clip-path="url(#a)" d="m317.642305 33.590377h12.116038v-12.116037h-12.116038z" fill="#a6da8b"/><path clip-path="url(#a)" d="m329.758343 33.590377h12.116038v-12.116037h-12.116038z" fill="#8bce81"/><path clip-path="url(#a)" d="m341.874381 33.590377h12.116038v-12.116037h-12.116038z" fill="#288a47"/><path clip-path="url(#a)" d="m353.990419 33.590377h12.116037v-12.116037h-12.116037z" fill="#dbf1a4"/><path clip-path="url(#a)" d="m366.106456 33.590377h12.116038v-12.116037h-12.116038z" fill="#84cb7e"/><path clip-path="url(#a)" d="m378.222494 33.590377h12.116038v-12.116037h-12.116038z" fill="#8bce81"/><path clip-path="url(#a)" d="m390.338532 33.590377h12.116038v-12.116037h-12.116038z" fill="#edf8b1"/><path clip-path="url(#a)" d="m402.45457 33.590377h12.116037v-12.116037h-12.116037z" fill="#a1d889"/><path clip-path="url(#a)" d="m414.570607 33.590377h12.116038v-12.116037h-12.116038z" fill="#afde8f"/><path clip-path="url(#a)" d="m426.686645 33.590377h12.116038v-12.116037h-12.116038z" fill="#268846"/><path clip-path="url(#a)" d="m438.802683 33.590377h12.116038v-12.116037h-12.116038z" fill="#77c679"/><path clip-path="url(#a)" d="m450.918721 33.590377h12.116037v-12.116037h-12.116037z" fill="#8bce81"/><path clip-path="url(#a)" d="m463.034758 33.590377h12.116038v-12.116037h-12.116038z" fill="#86cc7f"/><path clip-path="url(#a)" d="m475.150796 33.590377h12.116038v-12.116037h-12.116038z" fill="#9cd687"/><path clip-path="url(#a)" d="m487.266834 33.590377h12.116037v-12.116037h-12.116037z" fill="#aedd8e"/><path clip-path="url(#a)" d="m499.382871 33.590377h12.116038v-12.116037h-12.116038z" fill="#56b568"/><path clip-path="url(#a)" d="m511.498909 33.590377h12.116038v-12.116037h-12.116038z" fill="#8bce81"/><path clip-path="url(#a)" d="m523.614947 33.590377h12.116038v-12.116037h-12.116038z" fill="#83cb7d"/><path clip-path="url(#a)" d="m535.730985 33.590377h12.116037v-12.116037h-12.116037z" fill="#9ad587"/><path clip-path="url(#a)" d="m547.847022 33.590377h12.116038v-12.116037h-12.116038z" fill="#98d486"/><path clip-path="url(#a)" d="m559.96306 33.590377h12.116038v-12.116037h-12.116038z" fill="#abdc8d"/><path clip-path="url(#a)" d="m572.079098 33.590377h12.116038v-12.116037h-12.116038z" fill="#a4d98a"/><path clip-path="url(#a)" d="m584.195136 33.590377h12.116037v-12.116037h-12.116037z" fill="#b5e092"/><path clip-path="url(#a)" d="m596.311173 33.590377h12.116038v-12.116037h-12.116038z" fill="#8bce81"/><path clip-path="url(#a)" d="m608.427211 33.590377h12.116038v-12.116037h-12.116038z" fill="#a1d889"/><path clip-path="url(#a)" d="m620.543249 33.590377h12.116038v-12.116037h-12.116038z" fill="#ffffe5"/><path clip-path="url(#a)" d="m632.659287 33.590377h12.116037v-12.116037h-12.116037z" fill="#bde496"/><path clip-path="url(#a)" d="m644.775324 33.590377h12.116038v-12.116037h-12.116038z" fill="#8bce81"/><path clip-path="url(#a)" d="m656.891362 33.590377h12.116038v-12.116037h-12.116038z" fill="#5ab76a"/><path clip-path="url(#a)" d="m669.0074 33.590377h12.116037v-12.116037h-12.116037z" fill="none"/></g><g stroke-linejoin="round"><g transform="matrix(.1 0 0 -.1 67.613738 117.385041)"><use xlink:href="#b"/><use x="29.492188" xlink:href="#c"/><use x="90.771484" xlink:href="#d"/></g><g transform="matrix(.1 0 0 -.1 114.934139 117.385041)"><use xlink:href="#e"/><use x="52.019531" xlink:href="#f"/><use x="113.542969" xlink:href="#g"/></g><g transform="matrix(.1 0 0 -.1 162.816259 117.385041)"><use xlink:href="#h"/><use x="86.279297" xlink:href="#c"/><use x="147.558594" xlink:href="#i"/></g><g transform="matrix(.1 0 0 -.1 224.180041 117.385041)"><use xlink:href="#j"/><use x="68.408203" xlink:href="#k"/><use x="131.884766" xlink:href="#i"/></g><g transform="matrix(.1 0 0 -.1 270.956692 117.385041)"><use xlink:href="#h"/><use x="86.279297" xlink:href="#c"/><path d="m32.171875-5.078125q-3.796875-9.765625-7.421875-12.734375-3.609375-2.984375-9.65625-2.984375h-7.1875v7.515625h5.28125q3.703125 0 5.75 1.765625 2.0625 1.75 4.546875 8.296875l1.609375 4.09375-22.109375 53.8125h9.515625l17.09375-42.765625 17.09375 42.765625h9.515625z" transform="translate(147.558594)"/></g><g transform="matrix(.1 0 0 -.1 321.945843 117.385041)"><use xlink:href="#b"/><use x="29.492188" xlink:href="#l"/><use x="92.871094" xlink:href="#d"/></g><g transform="matrix(.1 0 0 -.1 384.305719 117.385041)"><use xlink:href="#b"/><use x="29.492188" xlink:href="#l"/><use x="92.871094" xlink:href="#m"/></g><g transform="matrix(.1 0 0 -.1 429.039402 117.385041)"><use xlink:href="#j"/><use x="68.408203" xlink:href="#l"/><path d="m45.40625 27.984375q0 9.765625-4.03125 15.125-4.015625 5.375-11.296875 5.375-7.21875 0-11.25-5.375-4.03125-5.359375-4.03125-15.125 0-9.71875 4.03125-15.09375 4.03125-5.375 11.25-5.375 7.28125 0 11.296875 5.375 4.03125 5.375 4.03125 15.09375zm8.984375-21.203125q0-13.953125-6.203125-20.765625-6.1875-6.8125-18.984375-6.8125-4.734375 0-8.9375.703125-4.203125.703125-8.15625 2.171875v8.734375q3.953125-2.140625 7.8125-3.15625 3.859375-1.03125 7.859375-1.03125 8.84375 0 13.234375 4.609375 4.390625 4.609375 4.390625 13.9375v4.453125q-2.78125-4.84375-7.125-7.234375-4.34375-2.390625-10.40625-2.390625-10.046875 0-16.203125 7.65625-6.15625 7.671875-6.15625 20.328125 0 12.6875 6.15625 20.34375 6.15625 7.671875 16.203125 7.671875 6.0625 0 10.40625-2.390625 4.34375-2.390625 7.125-7.21875v8.296875h8.984375z" transform="translate(131.787109)"/></g><g transform="matrix(.1 0 0 -.1 477.841834 117.385041)"><use xlink:href="#n"/><use x="63.476562" xlink:href="#f"/><use x="125" xlink:href="#k"/></g><g transform="matrix(.1 0 0 -.1 539.20171 117.385041)"><path d="m39.40625 66.21875q-10.75 0-17.078125-8.015625-6.3125-8-6.3125-21.828125 0-13.765625 6.3125-21.78125 6.328125-8 17.078125-8 10.734375 0 17.015625 8 6.28125 8.015625 6.28125 21.78125 0 13.828125-6.28125 21.828125-6.28125 8.015625-17.015625 8.015625zm0 8q15.328125 0 24.5-10.28125 9.1875-10.28125 9.1875-27.5625 0-17.234375-9.1875-27.515625-9.171875-10.28125-24.5-10.28125-15.375 0-24.59375 10.25-9.203125 10.265625-9.203125 27.546875 0 17.28125 9.203125 27.5625 9.21875 10.28125 24.59375 10.28125z"/><use x="78.710938" xlink:href="#o"/><use x="133.691406" xlink:href="#p"/></g><g transform="matrix(.1 0 0 -.1 586.551798 117.385041)"><path d="m9.8125 72.90625h13.28125l32.328125-60.984375v60.984375h9.5625v-72.90625h-13.28125l-32.3125 60.984375v-60.984375h-9.578125z"/><use x="74.804688" xlink:href="#q"/><path d="m2.984375 54.6875h9.515625l17.09375-45.890625 17.09375 45.890625h9.515625l-20.515625-54.6875h-12.203125z" transform="translate(135.986328)"/></g><g transform="matrix(.1 0 0 -.1 635.099543 117.385041)"><path d="m19.671875 64.796875v-56.6875h11.921875q15.09375 0 22.09375 6.828125 7 6.84375 7 21.59375 0 14.640625-7 21.453125-7 6.8125-22.09375 6.8125zm-9.859375 8.109375h20.265625q21.1875 0 31.09375-8.8125 9.921875-8.8125 9.921875-27.5625 0-18.859375-9.96875-27.703125-9.953125-8.828125-31.046875-8.828125h-20.265625z"/><use x="77.001953" xlink:href="#f"/><use x="138.525391" xlink:href="#o"/></g></g><g stroke-linejoin="round"><g transform="matrix(.1 0 0 -.1 684.623437 30.291733)"><use xlink:href="#h"/><use x="86.279297" xlink:href="#q"/><use x="147.460938" xlink:href="#d"/></g><g transform="matrix(.1 0 0 -.1 684.623437 42.407771)"><use xlink:href="#r"/><use x="45.958984" xlink:href="#l"/><use x="109.337891" xlink:href="#f"/></g><g transform="matrix(.1 0 0 -.1 684.623437 54.523809)"><path d="m3.328125 72.90625h9.953125l15.328125-61.625 15.28125 61.625h11.09375l15.328125-61.625 15.28125 61.625h10.015625l-18.3125-72.90625h-12.40625l-15.375 63.28125-15.53125-63.28125h-12.40625z"/><use x="93.001953" xlink:href="#f"/><use x="154.525391" xlink:href="#s"/></g><g transform="matrix(.1 0 0 -.1 684.623437 66.639847)"><use xlink:href="#r"/><path d="m54.890625 33.015625v-33.015625h-8.984375v32.71875q0 7.765625-3.03125 11.609375-3.03125 3.859375-9.078125 3.859375-7.28125 0-11.484375-4.640625-4.203125-4.625-4.203125-12.640625v-30.90625h-9.03125v75.984375h9.03125v-29.796875q3.234375 4.9375 7.59375 7.375 4.375 2.4375 10.09375 2.4375 9.421875 0 14.25-5.828125 4.84375-5.828125 4.84375-17.15625z" transform="translate(61.083984)"/><use x="124.462891" xlink:href="#l"/></g><g transform="matrix(.1 0 0 -.1 684.623437 78.755884)"><use xlink:href="#e"/><use x="50.269531" xlink:href="#i"/><use x="91.382812" xlink:href="#t"/></g><g transform="matrix(.1 0 0 -.1 684.623437 90.871922)"><use xlink:href="#n"/><use x="63.476562" xlink:href="#c"/><use x="124.755859" xlink:href="#p"/></g><g transform="matrix(.1 0 0 -.1 684.623437 102.98796)"><use xlink:href="#n"/><use x="63.476562" xlink:href="#l"/><use x="126.855469" xlink:href="#d"/></g><g fill="#808080" transform="matrix(0 -.3 -.3 0 28.720312 97.246097)"><path d="m3.125 0q.484375 9.03125 3.734375 15.71875 3.25 6.6875 12.671875 12.15625l9.375 5.421875q6.296875 3.671875 8.84375 6.25 4 4.0625 4 9.28125 0 6.109375-3.671875 9.6875-3.65625 3.59375-9.75 3.59375-9.046875 0-12.5-6.828125-1.859375-3.671875-2.0625-10.15625h-8.9375q.15625 9.125 3.375 14.890625 5.71875 10.15625 20.171875 10.15625 12 0 17.546875-6.5 5.546875-6.5 5.546875-14.453125 0-8.390625-5.90625-14.359375-3.421875-3.46875-12.265625-8.390625l-6.6875-3.71875q-4.78125-2.625-7.515625-5.03125-4.890625-4.234375-6.15625-9.421875h38.1875v-8.296875z"/><path d="m27.046875 69.921875q13.578125 0 19.640625-11.1875 4.6875-8.640625 4.6875-23.671875 0-14.265625-4.25-23.59375-6.15625-13.375-20.125-13.375-12.59375 0-18.75 10.9375-5.125 9.140625-5.125 24.515625 0 11.90625 3.078125 20.453125 5.765625 15.921875 20.84375 15.921875zm-.09375-63.8125q6.84375 0 10.890625 6.046875 4.046875 6.0625 4.046875 22.5625 0 11.90625-2.9375 19.59375-2.921875 7.703125-11.359375 7.703125-7.765625 0-11.359375-7.3125-3.59375-7.296875-3.59375-21.5 0-10.6875 2.296875-17.1875 3.515625-9.90625 12.015625-9.90625z" transform="translate(55.615234)"/><path d="m9.578125 49.515625v6.734375q9.515625.921875 13.265625 3.09375 3.765625 2.1875 5.625 10.28125h6.9375v-69.625h-9.375v49.515625z" transform="translate(111.230469)"/><path d="m13.28125 16.890625q.390625-7.265625 5.609375-10.046875 2.6875-1.46875 6.0625-1.46875 6.296875 0 10.734375 5.25 4.453125 5.25 6.3125 21.3125-2.9375-4.640625-7.265625-6.53125-4.3125-1.875-9.296875-1.875-10.109375 0-16 6.296875-5.875 6.3125-5.875 16.21875 0 9.515625 5.8125 16.734375 5.8125 7.234375 17.140625 7.234375 15.28125 0 21.09375-13.765625 3.21875-7.5625 3.21875-18.9375 0-12.84375-3.859375-22.765625-6.390625-16.5-21.671875-16.5-10.25 0-15.578125 5.375-5.328125 5.375-5.328125 13.46875zm13.328125 14.359375q5.234375 0 9.546875 3.4375 4.328125 3.453125 4.328125 12.046875 0 7.703125-3.890625 11.484375-3.875 3.796875-9.890625 3.796875-6.4375 0-10.21875-4.328125-3.78125-4.3125-3.78125-11.546875 0-6.828125 3.3125-10.859375 3.328125-4.03125 10.59375-4.03125z" transform="translate(166.845703)"/></g></g><g fill="none" stroke="#808080" stroke-linejoin="miter"><path d="m38.973438 33.590377h12.116037v-12.116037h48.464151v48.464151h-12.116038v36.348113h-48.46415z"/><path d="m87.437588 69.938491h12.116038v-48.464151h48.464151v48.464151h-12.116038v36.348113h-48.464151z"/><path d="m135.901739 69.938491h12.116038v-48.464151h48.464151v84.812264h-12.116038-48.464151z"/><path d="m196.481928 21.47434h12.116038 48.464151v24.232075h-12.116038v60.580189h-48.464151z"/><path d="m244.946079 45.706415h12.116038v-24.232075h48.464151v60.580188h-12.116038v24.232076h-48.464151z"/><path d="m293.41023 82.054528h12.116038v-60.580188h48.464151v84.812264h-12.116038-48.464151z"/><path d="m353.990419 21.47434h12.116037 48.464151v36.348113h-12.116037v48.464151h-48.464151z"/><path d="m402.45457 57.822453h12.116037v-36.348113h48.464151v72.696226h-12.116037v12.116038h-48.464151z"/><path d="m450.918721 94.170566h12.116037v-72.696226h60.580189v12.116037h-12.116038v72.696227h-60.580188z"/><path d="m511.498909 33.590377h12.116038v-12.116037h48.464151v48.464151h-12.116038v36.348113h-48.464151z"/><path d="m559.96306 69.938491h12.116038v-48.464151h48.464151v72.696226h-12.116038v12.116038h-48.464151z"/><path d="m608.427211 94.170566h12.116038v-72.696226h60.580188v24.232075h-12.116037v60.580189h-60.580189z"/></g></g><g transform="matrix(.12 0 0 -.12 213.497813 16.318125)"><path d="m44.390625 34.1875q3.171875-1.078125 6.171875-4.59375 3-3.515625 6.03125-9.671875l10.015625-19.921875h-10.609375l-9.3125 18.703125q-3.625 7.328125-7.015625 9.71875-3.390625 2.390625-9.25 2.390625h-10.75v-30.8125h-9.859375v72.90625h22.265625q12.5 0 18.65625-5.234375 6.15625-5.21875 6.15625-15.765625 0-6.890625-3.203125-11.4375-3.203125-4.53125-9.296875-6.28125zm-24.71875 30.609375v-25.875h12.40625q7.125 0 10.765625 3.296875 3.640625 3.296875 3.640625 9.6875 0 6.390625-3.640625 9.640625-3.640625 3.25-10.765625 3.25z"/><use x="67.232422" xlink:href="#c"/><use x="128.511719" xlink:href="#d"/><use x="191.890625" xlink:href="#s"/><use x="255.367188" xlink:href="#q"/><use x="316.548828" xlink:href="#u"/><use x="445.748047" xlink:href="#s"/><use x="509.224609" xlink:href="#c"/><use x="570.503906" xlink:href="#p"/><use x="609.712891" xlink:href="#c"/><path d="m37.109375 75.984375v-7.484375h-8.59375q-4.828125 0-6.71875-1.953125-1.875-1.953125-1.875-7.03125v-4.828125h14.796875v-6.984375h-14.796875v-47.703125h-9.03125v47.703125h-8.59375v6.984375h8.59375v3.8125q0 9.125 4.25 13.296875 4.25 4.1875 13.46875 4.1875z" transform="translate(702.779297)"/><use x="737.984375" xlink:href="#i"/><use x="776.847656" xlink:href="#q"/><use x="838.029297" xlink:href="#u"/><use x="967.228516" xlink:href="#v"/><use x="1019.328125" xlink:href="#p"/><use x="1058.537109" xlink:href="#c"/><use x="1119.816406" xlink:href="#d"/><use x="1183.195312" xlink:href="#s"/><use x="1246.671875" xlink:href="#c"/><use x="1307.951172" xlink:href="#i"/><use x="1347.314453" xlink:href="#s"/><use x="1442.578125" xlink:href="#d"/><use x="1505.957031" xlink:href="#q"/><use x="1567.138672" xlink:href="#i"/><use x="1606.501953" xlink:href="#u"/><use x="1703.914062" xlink:href="#c"/><use x="1765.193359" xlink:href="#m"/><use x="1824.763672" xlink:href="#s"/><use x="1888.240234" xlink:href="#t"/><use x="1916.023438" xlink:href="#v"/><use x="1968.123047" xlink:href="#p"/><use x="2007.332031" xlink:href="#i"/><use x="2048.445312" xlink:href="#t"/><use x="2076.228516" xlink:href="#g"/><use x="2139.705078" xlink:href="#l"/><use x="2203.083984" xlink:href="#p"/><use x="2242.292969" xlink:href="#t"/><use x="2270.076172" xlink:href="#q"/><use x="2331.257812" xlink:href="#d"/></g></g></svg>